<svg xmlns="http://www.w3.org/2000/svg" width="40" height="40" fill="none" xmlns:v="https://vecta.io/nano"><g filter="url(#A)"><rect x="1" width="38" height="38" rx="4" fill="#fff" shape-rendering="crispEdges"/><rect x="1.5" y=".5" width="37" height="37" rx="3.5" stroke="#878787" shape-rendering="crispEdges"/><g clip-path="url(#B)"><path d="M23.214 15.196l-1.499-4.888-.034-.108c-.541-1.548-2.797-1.639-3.355-.04l-1.569 5.036h-4.955l-.106.003c-1.649.091-2.331 2.286-.972 3.304l4.024 2.969-1.861 5.118-.031.094c-.497 1.641 1.391 3.005 2.794 1.952l4.388-3.258 4.356 3.259c1.422 1.066 3.255-.332 2.789-1.964l-.032-.098-1.924-5.109 4.011-2.958c1.392-1.044.698-3.312-1.07-3.312l-4.953-.001zm-3.222-1.981l1.003 3.27.045.122c.292.711.961 1.09 1.661 1.09l3.429-.001-2.822 2.082-.101.087a1.83 1.83 0 0 0-.525 1.934l1.276 3.388-2.841-2.125c-.594-.475-1.444-.475-2.098-.039l-.052.036-2.926 2.173 1.238-3.402.036-.119c.189-.712-.051-1.456-.611-1.904l-2.862-2.112h3.429c.792 0 1.472-.394 1.713-1.234l1.01-3.246z" fill="#706e6b"/></g></g><defs><filter id="A" x="0" y="0" width="40" height="40" filterUnits="userSpaceOnUse" color-interpolation-filters="sRGB"><feFlood flood-opacity="0" result="A"/><feColorMatrix in="SourceAlpha" values="0 0 0 0 0 0 0 0 0 0 0 0 0 0 0 0 0 0 127 0" result="B"/><feOffset dy="1"/><feGaussianBlur stdDeviation=".5"/><feComposite in2="B" operator="out"/><feColorMatrix values="0 0 0 0 0.423529 0 0 0 0 0.419608 0 0 0 0 0.419608 0 0 0 1 0"/><feBlend in2="A"/><feBlend in="SourceGraphic"/></filter><clipPath id="B"><path fill="#fff" transform="translate(10 9)" d="M0 0h20v20H0z"/></clipPath></defs></svg>