<svg xmlns="http://www.w3.org/2000/svg" width="40" height="40" fill="none" xmlns:v="https://vecta.io/nano"><g filter="url(#A)"><rect x="1" width="38" height="38" rx="4" fill="#fff" shape-rendering="crispEdges"/><rect x="1.5" y=".5" width="37" height="37" rx="3.5" stroke="#878787" shape-rendering="crispEdges"/><path fill-rule="evenodd" d="M14.396 12.807a1.47 1.47 0 0 1 .725-1.1 1.47 1.47 0 0 1 1.315-.077c1.062.454 3.442 1.533 6.462 3.276s5.146 3.267 6.069 3.958a1.47 1.47 0 0 1 .001 2.356c-.914.687-3.013 2.19-6.07 3.956s-5.412 2.832-6.464 3.28a1.47 1.47 0 0 1-2.038-1.177c-.138-1.142-.396-3.735-.396-7.237s.257-6.092.396-7.235z" fill="#585858"/></g><defs><filter id="A" x="0" y="0" width="40" height="40" filterUnits="userSpaceOnUse" color-interpolation-filters="sRGB"><feFlood flood-opacity="0" result="A"/><feColorMatrix in="SourceAlpha" values="0 0 0 0 0 0 0 0 0 0 0 0 0 0 0 0 0 0 127 0" result="B"/><feOffset dy="1"/><feGaussianBlur stdDeviation=".5"/><feComposite in2="B" operator="out"/><feColorMatrix values="0 0 0 0 0.423529 0 0 0 0 0.419608 0 0 0 0 0.419608 0 0 0 1 0"/><feBlend in2="A"/><feBlend in="SourceGraphic"/></filter></defs></svg>