<svg xmlns="http://www.w3.org/2000/svg" width="24" height="25" fill="none" xmlns:v="https://vecta.io/nano"><g clip-path="url(#A)"><path d="M24 12.5c0-6.627-5.373-12-12-12S0 5.873 0 12.5c0 5.99 4.388 10.954 10.125 11.854v-8.385H7.078V12.5h3.047V9.856c0-3.007 1.792-4.669 4.533-4.669 1.313 0 2.686.234 2.686.234v2.953h-1.513c-1.491 0-1.956.925-1.956 1.875v2.25h3.328l-.532 3.469h-2.796v8.385C19.612 23.454 24 18.49 24 12.5z" fill="#000"/></g><defs><clipPath id="A"><path fill="#fff" transform="translate(0 .5)" d="M0 0h24v24H0z"/></clipPath></defs></svg>