<svg xmlns="http://www.w3.org/2000/svg" width="109" height="108" fill="none" xmlns:v="https://vecta.io/nano"><path d="M15.603 3.375c-6.099 0-10.523 4.978-11.63 10.584l-.003.034-.007.03c-.252 1.388.035 2.82.803 4.003.763 1.161 2.157 2.224 4.016 2.224h11.961l-.162 71.105v.007c.004 3.525 1.407 6.905 3.9 9.398s5.872 3.895 9.398 3.9h52.886c.27 0 .54-.014.8-.041 12.926-.182 15.997-5.275 17.304-10.32a5.09 5.09 0 0 0-.002-2.278c-.172-.749-.512-1.45-.994-2.049-.617-.741-1.392-1.334-2.268-1.736a6.45 6.45 0 0 0-2.795-.586h-3.979V18.394c0-3.974-1.579-7.786-4.389-10.596s-6.622-4.389-10.596-4.389H32.9v-.034H15.603zm11.89 16.875h.007v-3.375a15.05 15.05 0 0 0-1.6-6.75h.25v.034h53.696c2.184 0 4.279.868 5.823 2.412s2.412 3.639 2.412 5.823v69.255H49.1c-1.353-.06-2.686.342-3.78 1.139s-1.886 1.943-2.244 3.248a8.1 8.1 0 0 1-6.443 5.839v.034h-2.754c-1.735-.004-3.397-.695-4.624-1.921s-1.918-2.888-1.924-4.623l.162-71.098v-.017z" fill="#3dbbec"/><path d="M27.494 20.25h.007v-3.375a15.05 15.05 0 0 0-1.6-6.75h.25v.034h53.696c2.184 0 4.279.868 5.823 2.412s2.412 3.639 2.412 5.823v69.255H49.101c-1.353-.06-2.686.342-3.78 1.139s-1.886 1.943-2.244 3.248a8.1 8.1 0 0 1-6.443 5.839v.034h-2.754c-1.735-.004-3.397-.695-4.624-1.921s-1.919-2.888-1.924-4.623l.162-71.098v-.017z" fill="#c2e8ff"/><g clip-path="url(#A)"><path d="M82.77 58.345c0 2.963-1.213 5.805-3.372 7.9s-5.087 3.272-8.139 3.272-5.981-1.177-8.139-3.272-3.372-4.937-3.372-7.9 1.213-5.805 3.372-7.9 5.087-3.272 8.139-3.272 5.981 1.177 8.139 3.272 3.372 4.937 3.372 7.9z" fill="#e7a536"/><path d="M76.534 74.685c-.791 0-1.319-.256-2.11-.512l-3.165-1.28-3.166 1.28c-.527.256-1.319.512-2.11.512-.528 0-.791 0-1.319-.256l-1.319 9.985 7.914-5.121 7.914 5.121-1.583-9.985c-.264.256-.791.256-1.055.256zm7.65-16.13a2.13 2.13 0 0 1 0-1.792l1.583-3.072c.528-1.024 0-2.304-1.319-2.816l-3.429-1.28c-.528-.256-1.055-.768-1.319-1.28l-1.319-3.328c-.264-1.024-1.055-1.536-1.847-1.536-.264 0-.791 0-1.055.256l-3.429 1.536h-.791c-.264 0-.528 0-.791-.256l-3.429-1.28c-.264-.256-.791-.256-1.055-.256-.791 0-1.583.512-2.11 1.28l-1.319 3.584c0 .512-.528 1.024-1.055 1.28l-3.693 1.28c-1.055.256-1.583 1.536-1.055 2.816l1.583 3.328a2.13 2.13 0 0 1 0 1.792l-1.583 3.072c-.528 1.024 0 2.304 1.319 2.816l3.429 1.28c.528.256 1.055.768 1.319 1.28l1.319 3.328c.264 1.024 1.055 1.536 1.847 1.536.264 0 .528 0 .791-.256l3.429-1.536c.264 0 .528-.256.791-.256s.528 0 .791.256l3.429 1.536c.264.256.528.256.791.256.791 0 1.583-.512 2.11-1.28l1.319-3.328c.264-.512.791-1.024 1.319-1.28l3.429-1.28c1.055-.512 1.847-1.792 1.319-2.816l-1.319-3.585zm-12.926 9.473c-5.803 0-10.552-4.609-10.552-10.241s4.748-10.241 10.552-10.241S81.81 52.153 81.81 57.786s-4.748 10.241-10.552 10.241z" fill="#ebbc48"/><path d="M76.534 74.684c-.791 0-1.319-.256-2.11-.512l-3.166-1.28-3.165 1.28c-.528.256-1.319.512-2.11.512-.528 0-.791 0-1.319-.256l-1.319 9.985 7.914-5.121 7.914 5.121-1.583-9.985c-.264.256-.791.256-1.055.256z" fill="#e7a536"/><path d="M79.172 57.786c0 2.037-.834 3.991-2.318 5.431s-3.497 2.25-5.596 2.25-4.112-.809-5.596-2.25-2.318-3.394-2.318-5.431.834-3.991 2.318-5.431 3.497-2.25 5.596-2.25 4.112.809 5.596 2.25 2.318 3.394 2.318 5.431z" fill="#f9e17d"/><path d="M71.258 60.556l2.791 1.429c.511.262 1.137-.125 1.002-.615l-.74-2.687 2.468-1.81c.451-.33.209-.956-.383-.996l-3.249-.233-1.271-2.539c-.229-.461-1.009-.461-1.238 0l-1.271 2.533-3.249.233c-.592.04-.834.666-.383.996l2.468 1.81-.74 2.687c-.135.489.491.877 1.002.615l2.791-1.423z" fill="#e7a536"/></g><path d="M33.874 19.528h37.962M33.874 35.797h33.923M33.874 52.066h17.308M33.874 68.682h15.923" stroke="#00a1e0" stroke-width="2.5" stroke-linecap="round"/><defs><clipPath id="A"><path fill="#fff" transform="translate(50.155 43.448)" d="M0 0h42.207v40.965H0z"/></clipPath></defs></svg>