<svg xmlns="http://www.w3.org/2000/svg" width="120" height="122" fill="none" xmlns:v="https://vecta.io/nano"><path d="M36.875 106.651c.917.965 1.827 1.924 2.684 3.142v2.276h12.019v-2.276l-.627-5.846c-.045-1.247-1.733-3.521-1.733-3.521l-5.182-6.478s-1.467-1.536-2.306-3.239-2.626.439-2.862 1.972.213 2.341.213 2.341l2.959 5.833-4.497-6.534c-.54-.949-.691-2.96-.86-5.206-.163-2.189-.344-4.602-.918-6.478-1.164-3.8-4.531-2.849-5.115-1.15s-.451 12.92-.239 14.792c.166 1.466 1.058 2.899 2.062 4.515l.849 1.39c1.125 1.911 2.345 3.196 3.554 4.466zm42.243 3.142c.857-1.218 1.767-2.177 2.684-3.142 1.21-1.27 2.429-2.555 3.556-4.466l.847-1.388c1.004-1.617 1.895-3.052 2.062-4.517.212-1.871.344-13.093-.239-14.792s-3.95-2.65-5.115 1.151c-.572 1.876-.754 4.288-.918 6.476-.17 2.246-.32 4.257-.86 5.206-1.066 1.874-4.498 6.534-4.498 6.534l2.961-5.833s.453-.808.215-2.341-2.023-3.677-2.862-1.972-2.307 3.239-2.307 3.239l-5.182 6.478s-1.688 2.274-1.734 3.521c-.032.887-.412 4.076-.627 5.846v2.276H79.12v-2.276zm-16.547 10.293a1.6 1.6 0 0 0 .474 1.134c.303.3.715.469 1.143.469h12.936c.429 0 .84-.169 1.143-.469a1.6 1.6 0 0 0 .474-1.134v-3.207a1.6 1.6 0 0 0-.474-1.134c-.303-.301-.715-.47-1.143-.47H64.188a1.62 1.62 0 0 0-1.143.47 1.6 1.6 0 0 0-.474 1.134v3.207zm-6.465 0a1.6 1.6 0 0 1-.474 1.134c-.303.3-.714.469-1.143.469H41.553c-.429 0-.84-.169-1.143-.469a1.6 1.6 0 0 1-.474-1.134v-3.207a1.6 1.6 0 0 1 .474-1.134c.303-.301.715-.47 1.143-.47h12.936a1.62 1.62 0 0 1 1.143.47 1.6 1.6 0 0 1 .474 1.134v3.207zm-14.783-85.56c.302 0 .639.046 1.011.138s.744.219 1.116.38l1.116.449 1.011.415-.558.069c-.186.023-.383.035-.593.035a3.23 3.23 0 0 1-1.081-.173c-.326-.115-.627-.265-.906-.449a3.54 3.54 0 0 0-.837-.415 6.49 6.49 0 0 0-.767-.207c-.232 0-.442.046-.627.138l-.558.311c0-.092-.081-.138-.244-.138.163-.161.465-.288.906-.38l1.011-.173zm4.706 1.556c.953 0 1.825.161 2.615.484a7.76 7.76 0 0 1-.976.277 7.12 7.12 0 0 1-1.011.138 5.23 5.23 0 0 1-1.255-.138c.116-.184.232-.3.349-.346s.209-.184.279-.415zM59.73 4.002c3.277 0 6.426.426 9.448 1.279s5.857 2.04 8.507 3.561a34.35 34.35 0 0 1 7.251 5.566 36.58 36.58 0 0 1 5.578 7.156c1.534 2.581 2.743 5.393 3.626 8.435s1.313 6.176 1.29 9.403c0 3.25-.43 6.372-1.29 9.368s-2.057 5.808-3.591 8.435-3.405 5.024-5.613 7.19-4.613 4.01-7.217 5.531-5.438 2.719-8.506 3.595A33.5 33.5 0 0 1 59.73 74.8c-3.277 0-6.426-.426-9.448-1.279s-5.857-2.04-8.506-3.561-5.067-3.376-7.251-5.566a36.58 36.58 0 0 1-5.578-7.156c-1.534-2.581-2.742-5.393-3.626-8.435a32.7 32.7 0 0 1-1.29-9.403c0-3.249.43-6.372 1.29-9.368s2.057-5.808 3.591-8.435 3.405-5.024 5.613-7.19 4.614-4.01 7.217-5.531 5.438-2.719 8.506-3.595 6.229-1.302 9.483-1.279z" fill="#00a1e0"/><path d="M41.323 34.526c.302 0 .639.046 1.011.138s.744.219 1.116.38l1.116.449 1.011.415-.558.069c-.186.023-.383.035-.593.035-.395 0-.755-.058-1.081-.173s-.627-.265-.906-.449-.558-.323-.837-.415a6.49 6.49 0 0 0-.767-.207c-.232 0-.442.046-.627.138l-.558.311c0-.092-.081-.138-.244-.138.163-.161.465-.288.906-.38l1.011-.173zm4.706 1.556c.953 0 1.825.161 2.615.484a7.76 7.76 0 0 1-.976.277 7.12 7.12 0 0 1-1.011.138 5.23 5.23 0 0 1-1.255-.138c.116-.184.232-.3.349-.346s.209-.184.279-.415zm13.701-32.08c3.277 0 6.426.426 9.448 1.279s5.857 2.04 8.507 3.561 5.067 3.376 7.251 5.566a36.52 36.52 0 0 1 5.578 7.156c1.534 2.581 2.743 5.393 3.626 8.435s1.313 6.176 1.29 9.403c0 3.25-.43 6.372-1.29 9.368s-2.057 5.808-3.591 8.435-3.405 5.024-5.613 7.19-4.613 4.01-7.217 5.531-5.438 2.719-8.506 3.595-6.229 1.302-9.483 1.279c-3.277 0-6.426-.426-9.448-1.279s-5.857-2.04-8.506-3.561-5.067-3.376-7.251-5.566-4.044-4.575-5.578-7.156-2.742-5.393-3.626-8.435a32.7 32.7 0 0 1-1.29-9.403c0-3.249.43-6.372 1.29-9.368s2.057-5.808 3.591-8.435 3.405-5.024 5.613-7.19 4.614-4.01 7.217-5.531 5.439-2.719 8.506-3.595 6.229-1.302 9.483-1.279zm26.565 19.186l-.976-1.452-1.011-1.417c-.046.207-.105.357-.174.449s-.116.3-.139.622c0 .207.081.403.244.588s.372.369.627.553.511.323.767.415l.662.242zm-2.406-3.388c0 .184-.035.311-.105.38h.209c.093 0 .163.011.209.035l-.314-.415zm-24.16 50.575c2.65 0 5.241-.334 7.774-1.002a32.32 32.32 0 0 0 7.182-2.835c2.254-1.221 4.346-2.719 6.275-4.494s3.614-3.757 5.055-5.946l-.872-2.109c-.279-.714-.418-1.452-.418-2.212 0-.83.035-1.498.105-2.005l.244-1.348c.093-.392.139-.726.139-1.003s-.035-.634-.105-1.072-.267-.91-.593-1.417l-1.29-2.143.105-.657.139-.864a3.4 3.4 0 0 0 .035-.83 1.82 1.82 0 0 0-.174-.657c-.604-.069-1.232-.196-1.883-.38s-1.232-.461-1.743-.83l.209-.173c-.302.069-.604.161-.906.276l-.871.38a2.96 2.96 0 0 1-.907.277l-.941.138-.558-.069.105-.242-1.046.346c-.372.138-.732.207-1.081.207-.232 0-.569-.081-1.011-.242a11.09 11.09 0 0 1-1.325-.588c-.442-.23-.837-.484-1.185-.761s-.523-.542-.523-.795l.07-.104c-.116-.138-.267-.265-.453-.38l-.523-.346c-.163-.115-.314-.242-.453-.38s-.198-.3-.174-.484l.383-.311-.802-.104-.279-1.037c.046.115.151.161.314.138s.29-.069.383-.138l-1.255-.657.872-2.212c-.325-1.198-.407-2.12-.244-2.766s.477-1.175.941-1.59l1.534-1.244c.558-.415 1.127-.979 1.708-1.694l-.105-.415 2.301-2.766.523-.069 2.196-.069 2.475-.242 2.475-.346c.813-.115 1.557-.265 2.231-.449l-2.336-2.489c-.813-.784-1.685-1.533-2.615-2.247l-.941.38a6.77 6.77 0 0 0-1.116.622c-.372.254-.662.53-.871.83a2.16 2.16 0 0 0-.383.933l.209.657c-.418.668-.883 1.083-1.394 1.244s-1.034.253-1.569.277h-1.673c-.581-.023-1.139.081-1.673.311l-.558-1.175.523-2.005-.593-.864 6.031-1.867a2.77 2.77 0 0 0-1.255-1.452c-.581-.323-1.22-.484-1.917-.484v-.346l1.952-.311c-2.162-1.06-4.404-1.867-6.728-2.42s-4.706-.83-7.147-.83a30.75 30.75 0 0 0-5.996.588c-1.976.392-3.881.956-5.718 1.694s-3.614 1.659-5.334 2.765-3.289 2.351-4.706 3.733c.604 0 1.069.15 1.395.449s.627.634.906 1.003.569.703.872 1.002.709.461 1.22.484l.558-.415-.07-.761 1.15-1.625-.906-2.558.523-.346c.232-.161.43-.242.593-.242.697 0 1.232.034 1.604.104s.697.196.976.38.523.449.732.795.535.784.976 1.314l1.255-.968 1.116.449a13.94 13.94 0 0 1 1.569.761c.535.3.988.611 1.36.933s.569.622.593.899c0 .346-.128.622-.383.83s-.593.38-1.011.519-.848.242-1.29.311-.883.161-1.325.277-.779.23-1.011.346-.372.311-.418.588l2.022.657c-.465.392-.965.749-1.499 1.072l-1.673.899.139.588-3.207 1.245v.968l-.244.104.174-1.21-.139-.035c-.163 0-.256.035-.279.104a.76.76 0 0 0-.035.242.61.61 0 0 0 .07.277c.047.092.058.161.035.207l-.453-.242.07.138c0 .069.035.173.105.311s.163.265.279.38.209.23.279.346.116.173.139.173c0 .069-.047.138-.139.207a.79.79 0 0 1-.349.138c-.139.023-.232.058-.279.104s-.047.058 0 .035c.325 0 .395.023.209.069s-.477.161-.872.346-.755.449-1.081.795-.511.853-.558 1.521l.035 1.141c.023.369.012.749-.035 1.141-.325-.876-.813-1.544-1.464-2.005s-1.441-.691-2.371-.691l-1.499.138.732.484-1.22-.138c-.418-.046-.848-.058-1.29-.035s-.837.115-1.185.277-.697.403-1.046.726l-.209 1.556c0 .737.163 1.337.488 1.798s.895.703 1.708.726c.697 0 1.383-.104 2.057-.311a20.49 20.49 0 0 0 1.987-.726c-.209.507-.442.991-.697 1.452a5.41 5.41 0 0 0-.558 1.521l.453.207c.558-.369 1.069-.426 1.534-.173s.918.622 1.36 1.106l1.36 1.486c.465.507.965.876 1.499 1.106l-1.185.622-2.789-1.556c.023.046.047.15.07.311s.012.196-.035.104l-1.255-2.109a11.34 11.34 0 0 1-2.371-.346c-.837-.207-1.685-.484-2.545-.83s-1.662-.726-2.406-1.141a19.6 19.6 0 0 1-2.057-1.314l-.244 3.699c0 2.812.384 5.554 1.151 8.228s1.848 5.186 3.242 7.536 3.103 4.494 5.125 6.43 4.265 3.584 6.728 4.943a3.4 3.4 0 0 1-.035-1.452l.349-1.452.453-1.452a4.64 4.64 0 0 0 .244-1.486c0-.738-.116-1.51-.349-2.316l-.837-2.454-1.081-2.454c-.395-.807-.709-1.567-.941-2.282l-.558-2.005c-.139-.622-.07-1.164.209-1.625l-.523-.242c.139-.323.325-.634.558-.933l.732-.899a3.51 3.51 0 0 0 .593-.968c.139-.346.221-.691.244-1.037 0-.23-.047-.472-.139-.726l-.244-.726.732.173c.395-.899.93-1.509 1.604-1.832s1.522-.495 2.545-.518c.116 0 .36.046.732.138a10.01 10.01 0 0 1 1.185.38 9.98 9.98 0 0 0 1.185.38c.372.092.651.184.837.277 0 .161.093.265.279.311s.29.127.314.242l-.07.276a4.36 4.36 0 0 1 .488.242c.256.138.535.311.837.519l.802.553c.233.161.395.288.488.38.418 0 .988.138 1.708.415L59.452 45c.86.415 1.708.91 2.545 1.486l2.371 1.729c.744.576 1.313 1.152 1.708 1.728s.627 1.083.697 1.521l-1.185 1.245c.093 1.175.012 2.074-.244 2.697s-.651 1.141-1.185 1.556-1.15.761-1.848 1.037-1.453.668-2.266 1.175c0 .461-.116.957-.349 1.487s-.523 1.037-.872 1.521-.767.887-1.255 1.21-.976.484-1.464.484l-1.464-1.106c.047.046.047.127 0 .242s-.105.138-.174.069c.232.438.291.945.174 1.521s-.314 1.164-.593 1.763-.593 1.164-.941 1.694l-.941 1.348c1.255.323 2.51.565 3.765.726a29.76 29.76 0 0 0 3.8.242z" fill="#80d52f"/><path d="M54.129 82c-1.281 0-2.534.364-3.599 1.046s-1.896 1.652-2.386 2.786a5.97 5.97 0 0 0-.369 3.587c.25 1.204.867 2.311 1.773 3.179l9.572 9.175a.8.8 0 0 0 .261.167.83.83 0 0 0 .615 0c.097-.039.186-.095.261-.167l9.572-9.176c1.182-1.171 1.837-2.74 1.823-4.369s-.695-3.187-1.897-4.339a6.62 6.62 0 0 0-4.527-1.818c-1.699-.013-3.336.614-4.558 1.747l-.981.938-.979-.938c-.602-.577-1.316-1.034-2.102-1.346S54.98 82 54.129 82z" fill="#cf451d"/></svg>