<svg xmlns="http://www.w3.org/2000/svg" width="30" height="83" fill="none" xmlns:v="https://vecta.io/nano"><g clip-path="url(#A)"><path d="M3.03 82.077c-.718-.22 2.221-15.525 3.781-23.149.814-.119 2.621-.301 3.34-.081.898.275 8.081 19.296 7.875 19.97s-4.417 1.593-4.581.928-.479-4.444-1.084-4.875-3.331.452-4.323.885-.21 5.092-.934 5.852-3.175.745-4.073.47z" fill="#585858" stroke="#585858" stroke-width="2"/><path d="M7.585 72.424c-.605-.431 1.09-5.559 1.4-6.569.135-.43 2.871 5.054 2.811 5.65s-3.606 1.35-4.21.919z" fill="#d9d9d9"/><path d="M22.945 65.558l.146.866a2 2 0 0 1-1.639 2.305l-1.132.191a1.71 1.71 0 0 0-1.401 1.97 1.71 1.71 0 0 0 1.97 1.401l1.132-.191a2 2 0 0 1 2.305 1.639l.506 2.995a1.44 1.44 0 0 0 1.659 1.179 1.44 1.44 0 0 0 1.18-1.659l-.506-2.995a2 2 0 0 1 1.639-2.305l.955-.161a1.71 1.71 0 0 0 1.401-1.97 1.71 1.71 0 0 0-1.97-1.401l-.955.161a2 2 0 0 1-2.305-1.639l-.146-.866a1.44 1.44 0 0 0-1.659-1.18 1.44 1.44 0 0 0-1.179 1.659z" fill="#585858" stroke="#585858"/></g><defs><clipPath id="A"><path fill="#fff" d="M0 0h29.848v82.303H0z"/></clipPath></defs></svg>