<svg xmlns="http://www.w3.org/2000/svg" width="24" height="25" fill="none" xmlns:v="https://vecta.io/nano"><g clip-path="url(#A)" fill="#000"><path d="M12 2.661l4.847.07c1.172.052 1.805.248 2.226.412a3.71 3.71 0 0 1 1.378.895 3.69 3.69 0 0 1 .895 1.378c.164.422.361 1.059.412 2.227l.07 4.847-.07 4.847c-.052 1.172-.248 1.805-.412 2.227a3.71 3.71 0 0 1-.895 1.378 3.69 3.69 0 0 1-1.378.895c-.422.164-1.059.361-2.226.413L12 22.32c-3.206 0-3.586-.014-4.847-.07-1.172-.052-1.805-.248-2.227-.413a3.71 3.71 0 0 1-1.378-.895 3.69 3.69 0 0 1-.895-1.378c-.164-.422-.361-1.059-.413-2.227l-.07-4.847.07-4.847c.052-1.172.248-1.805.413-2.227a3.71 3.71 0 0 1 .895-1.378 3.69 3.69 0 0 1 1.378-.895c.422-.164 1.059-.361 2.227-.412L12 2.661zM12 .5L7.055.57c-1.275.056-2.152.262-2.911.558-.792.309-1.462.717-2.128 1.388A5.88 5.88 0 0 0 .628 4.639C.333 5.403.127 6.275.07 7.55L0 12.5l.07 4.945c.056 1.275.262 2.152.558 2.911.309.792.717 1.462 1.388 2.128s1.336 1.078 2.123 1.383c.764.295 1.636.502 2.911.558l4.945.07 4.945-.07c1.275-.056 2.152-.262 2.911-.558a5.86 5.86 0 0 0 2.123-1.383c.665-.666 1.078-1.336 1.383-2.123.295-.764.502-1.636.558-2.911l.07-4.945-.07-4.945c-.056-1.275-.263-2.152-.558-2.911a5.62 5.62 0 0 0-1.373-2.133 5.87 5.87 0 0 0-2.123-1.383C19.097.838 18.225.631 16.95.575L12 .5zm0 5.836c-3.403 0-6.164 2.761-6.164 6.164S8.597 18.664 12 18.664s6.164-2.761 6.164-6.164S15.403 6.336 12 6.336zm0 10.162A4 4 0 0 1 8.002 12.5 4 4 0 0 1 12 8.502a4 4 0 0 1 3.998 3.998A4 4 0 0 1 12 16.498zm7.847-10.406a1.44 1.44 0 0 1-1.439 1.439 1.44 1.44 0 0 1-1.439-1.439 1.44 1.44 0 0 1 1.439-1.439c.792 0 1.439.647 1.439 1.439z"/></g><defs><clipPath id="A"><path fill="#fff" transform="translate(0 .5)" d="M0 0h24v24H0z"/></clipPath></defs></svg>