<svg xmlns="http://www.w3.org/2000/svg" width="24" height="25" fill="none" xmlns:v="https://vecta.io/nano"><g clip-path="url(#A)"><path d="M22.223.5H1.772C.792.5 0 1.273 0 2.23v20.536c0 .956.792 1.734 1.772 1.734h20.452c.98 0 1.777-.778 1.777-1.73V2.23C24 1.273 23.203.5 22.223.5zM7.12 20.952H3.558V9.495H7.12v11.456zM5.339 7.934c-1.144 0-2.067-.923-2.067-2.063s.923-2.063 2.067-2.063 2.063.923 2.063 2.063-.923 2.063-2.062 2.063zm15.113 13.017h-3.558v-5.569c0-1.327-.023-3.037-1.851-3.037-1.852 0-2.133 1.448-2.133 2.944v5.663H9.356V9.495h3.412v1.566h.047c.473-.9 1.636-1.852 3.366-1.852 3.605 0 4.27 2.372 4.27 5.456v6.286z" fill="#000"/></g><defs><clipPath id="A"><path fill="#fff" transform="translate(0 .5)" d="M0 0h24v24H0z"/></clipPath></defs></svg>