<svg xmlns="http://www.w3.org/2000/svg" xmlns:xlink="http://www.w3.org/1999/xlink" width="149" height="106" fill="none" xmlns:v="https://vecta.io/nano"><path d="M90.734 100.002l48.135 4.584c4.531.437 5.691-2.093 5.691-4.236l-.05-2.6-59.2-8.354c0 2.967 2.409 10.606 5.423 10.606z" fill="#c62828"/><path d="M92.488 97.74l7.575.665 40.561 3.919c2.181 0 3.936-1.736 3.936-3.879l-2.152-65.742c0-2.143-1.765-3.879-3.936-3.879l-45.984-4.346c-3.014 0-5.463 2.411-5.463 5.378v62.508c0 2.967 2.439 5.378 5.463 5.378z" fill="#f44336"/><path d="M78.36 100.003l-48.136 4.584c-4.531.436-5.691-2.094-5.691-4.237l.05-2.6 59.2-8.364c0 2.977-2.409 10.617-5.423 10.617z" fill="#c62828"/><path d="M76.605 97.741l-7.515.665-40.62 3.929c-2.181 0-3.936-1.736-3.936-3.879l2.151-65.742c0-2.143 1.765-3.879 3.936-3.879l45.984-4.346c3.014 0 5.463 2.411 5.463 5.378v62.508c0 2.957-2.439 5.368-5.463 5.368z" fill="#f44336"/><path d="M99.17 83.026H69.942l-.892 15.409 9.121.853s1.953 4.882 6.375 4.882 6.375-4.882 6.375-4.882l9.121-.853-.872-15.409z" fill="#424242"/><path d="M99.953 99.645l-8.497-.734m-22.318.734l8.497-.734" stroke="#616161" stroke-width="2.5" stroke-miterlimit="10"/><path d="M139.722 32.563l-3.966-5.457-51.209 58.241-51.209-58.241-3.966 5.457-.555 64.839s10.529 1.32 24.598-.109c12.254-1.24 18.025-4.415 22.119-3.592 4.918.992 5.81 4.018 5.969 4.534.446 1.429 1.328 2.54 3.044 2.54s2.479-.595 3.004-2.361c.159-.516 1.091-3.711 6.008-4.703 4.095-.824 9.865 2.352 22.12 3.592 14.069 1.429 24.598.109 24.598.109l-.555-64.849z" fill="#94c6d6"/><path d="M134.417 91.152l.159-26.184h5.423l.277 32.435s-4.312-1.677-5.859-6.251z" fill="url(#A)"/><path d="M134.665 75.893l-.248 15.27s-11.858-.615-30.745-3.889c-12.353-2.143-19.125 4.723-19.125 4.723l-.109-16.103h50.227z" fill="url(#B)"/><path d="M34.429 75.893l.248 15.27s11.858-.615 30.745-3.889c12.354-2.143 19.125 4.723 19.125 4.723l-.109-16.103H34.429z" fill="url(#C)"/><path d="M34.676 91.153l-.159-26.184h-5.433l-.268 32.435s4.303-1.677 5.86-6.251z" fill="url(#D)"/><path d="M135.756 27.106s-26.314-4.951-37.864-5.596c-10.866-.605-13.097 4.931-13.315 5.596h-.04c-.228-.665-2.459-6.191-13.325-5.596-11.55.645-37.864 5.596-37.864 5.596l-1.17 63.897s31.33-6.568 38.915-5.715 13.454 6.707 13.454 6.707 5.879-5.854 13.464-6.707 38.915 5.715 38.915 5.715l-1.17-63.897z" fill="url(#E)"/><path opacity=".26" d="M74.255 21.521l-5.354 63.698c.843-.02 1.586 0 2.181.069 7.575.843 13.464 6.707 13.464 6.707l-.169-64.889s-1.289-5.08-10.123-5.586z" fill="#94c6d6"/><path opacity=".5" d="M46.187 29.944l-6.117 1.081-.01 2.014 6.127-1.091v-2.004zm24.132-3.195v1.975c5.284-.01 8.209 1.32 9.171 1.855l.01-2.203c-1.636-.734-4.63-1.637-9.181-1.627zm-4.303.248c-4.293.437-10.272 1.349-15.526 2.223v2.014c5.215-.863 11.203-1.786 15.526-2.242v-1.994zM55.457 35.56L40.05 38.169v2.014l15.407-2.619V35.56zm11.927-1.548c-2.092.169-4.759.506-7.624.903v2.004c2.925-.417 5.661-.754 7.783-.933 7.119-.585 10.876 1.161 11.927 1.756V35.53c-1.943-.863-5.84-2.034-12.086-1.518zM47.248 44.043l-7.198 1.27v2.014l7.198-1.27v-2.014zm32.223-1.339c-1.933-.873-5.84-2.064-12.145-1.538-4.035.327-10.212 1.25-15.774 2.163v2.014c5.612-.923 11.878-1.855 15.943-2.193 7.238-.595 11.005 1.22 11.977 1.786v-2.232zm.01 7.174c-1.913-.873-5.84-2.094-12.195-1.568-.644.05-1.338.119-2.072.199v1.994l2.241-.218c7.377-.605 11.144 1.29 12.036 1.826l-.01-2.232zm-18.58-.833c-7.753 1.062-17.41 2.778-20.84 3.403v2.014c3.024-.556 12.909-2.332 20.841-3.423v-1.994zm-11.798 8.969l-9.042 1.578v2.014l9.042-1.587v-2.004zm30.388-.953c-1.894-.873-5.84-2.123-12.254-1.597-3.569.298-8.804 1.042-13.821 1.846v2.004c5.066-.814 10.391-1.578 13.98-1.875 7.565-.625 11.342 1.399 12.096 1.855V57.06zm.02 14.357c-1.804-.863-5.711-2.163-12.155-1.677v1.994c8.219-.665 11.947 1.796 12.155 1.945v-2.262zm-32.262 1.191l-7.168 1.26v2.014l7.168-1.27v-2.004zm4.303-.714v2.014l11.501-1.707v-2.004c-3.5.437-7.634 1.062-11.501 1.697zm6.891 6.072c-7.099 1.032-15.08 2.451-18.352 3.046v2.014c2.965-.546 11.094-1.994 18.352-3.056v-2.004zm21.079.635c-1.795-.873-5.79-2.232-12.453-1.687-1.259.099-2.726.268-4.323.466v1.994c1.656-.208 3.183-.377 4.481-.486 8.487-.704 12.215 1.935 12.254 1.955l.05-.06-.01-2.183zM56.964 63.897c-6.762 1.012-13.93 2.292-16.894 2.838v2.014l16.895-2.848v-2.004zm22.536.337c-1.864-.873-5.82-2.163-12.324-1.627-1.666.139-3.698.377-5.899.675v2.004c2.27-.308 4.362-.556 6.068-.695 7.813-.645 11.59 1.528 12.165 1.895l-.01-2.252zm29.248-34.756c8.209 1.091 18.937 3.036 21.852 3.562l-.01-2.014c-3.411-.625-13.851-2.49-21.852-3.552v2.004h.01zm-4.313-2.5l-1.219-.109c-6.217-.516-10.103.645-12.056 1.508l.01 2.203c1.111-.615 4.868-2.312 11.888-1.736l1.378.129v-1.994zm18.144 11.797l8.031 1.419v-2.014l-8.031-1.409v2.004zm-4.303-2.728c-5.364-.863-11.154-1.717-15.001-2.034-6.246-.516-10.143.655-12.096 1.518v2.213c1.051-.595 4.808-2.342 11.928-1.756 3.876.317 9.756 1.191 15.159 2.064v-2.004h.01zm-.833 7.005v2.004l13.167 2.272v-2.014l-13.167-2.262zm-8.705 5.864c-1.993-.258-3.837-.476-5.364-.595-6.355-.526-10.281.695-12.195 1.568v2.232c.892-.526 4.67-2.431 12.037-1.826 1.566.129 3.47.347 5.522.625v-2.004zm4.313.605v2.004c7.188 1.072 14.931 2.471 17.549 2.947v-2.014c-2.955-.546-10.539-1.895-17.549-2.937zm.872 7.273c-3.916-.595-7.713-1.101-10.489-1.33-6.425-.526-10.371.724-12.255 1.597v2.242c.754-.466 4.531-2.48 12.096-1.855 2.806.228 6.683.754 10.658 1.359v-2.014h-.01zm4.303.675v2.014l12.364 2.133V59.6l-12.364-2.133zm7.01 8.315v2.014l5.344.953v-2.014l-5.344-.953zm-15.615 4.673c-2.271-.308-4.373-.556-6.078-.695-6.583-.546-10.559.784-12.384 1.657v2.262c.208-.149 3.956-2.629 12.235-1.945 1.745.139 3.907.397 6.246.714v-1.994h-.019zm4.302.615v2.004c6.822 1.032 13.98 2.322 16.657 2.808v-2.014l-16.657-2.798zm3.52 7.69c-5.027-.804-10.281-1.558-13.851-1.855-6.672-.546-10.658.823-12.452 1.687v2.183l.05.06c.03-.02 3.758-2.659 12.255-1.955 3.599.298 8.943 1.072 14.019 1.885V78.76h-.02zm4.313.714v2.014l8.814 1.548v-2.014l-8.814-1.548zm-18.441-16.877c-6.405-.506-10.311.774-12.156 1.637v2.252c.575-.367 4.343-2.54 12.156-1.895v-1.994zm4.313.456v1.994c4.085.516 8.992 1.29 13.305 2.004v-2.014c-4.342-.714-9.25-1.478-13.305-1.984zm-7.496-22.007c-4.442.03-7.366.943-8.943 1.657v2.223c.833-.476 3.678-1.855 8.943-1.905v-1.974zm4.303.218v1.994c2.469.248 5.533.665 8.695 1.131v-2.004c-3.172-.476-6.226-.883-8.695-1.121z" fill="#757575"/><path d="M91.646 97.681c-1.111-.099-2.132.585-2.489 1.647-.535 1.617-1.785 3.731-4.61 3.731-2.855 0-4.115-2.124-4.66-3.741-.17-.507-.504-.942-.95-1.237s-.977-.432-1.509-.39l-.387.03.01.317c0 1.987.789 3.892 2.192 5.297a7.48 7.48 0 0 0 10.586 0c1.404-1.405 2.192-3.31 2.192-5.297l-.01-.327-.367-.03z" fill="#616161"/><path d="M116.273 23.813v16.812l5.002-4.808 4.804 4.808v-15.37a52.45 52.45 0 0 0-9.806-1.442z" fill="#00a1e0"/><path d="M19.484 12.906c-1.323 1.296-3.1 2.022-4.951 2.022s-3.629-.726-4.951-2.022a.68.68 0 0 0-.972 0 .7.7 0 0 0 0 .996c1.305 1.314 2.037 3.091 2.037 4.943s-.732 3.629-2.037 4.943a.68.68 0 0 0 0 .972.7.7 0 0 0 .95 0 7.03 7.03 0 0 1 9.879 0 .7.7 0 0 0 .994 0 .7.7 0 0 0 0-.996c-1.305-1.314-2.037-3.091-2.037-4.943s.732-3.629 2.037-4.943a.68.68 0 0 0 0-.972.7.7 0 0 0-.95 0zm.565 21.243a2.26 2.26 0 0 1-3.256 0 .25.25 0 0 0-.34 0c-.041.042-.065.099-.065.158s.023.116.065.158a2.26 2.26 0 0 1 .52.748c.121.282.183.586.183.892a2.26 2.26 0 0 1-.183.892c-.121.281-.298.536-.52.748-.041.042-.065.099-.065.158s.023.116.065.158a.25.25 0 0 0 .158.057c.057 0 .114-.02.158-.057a2.26 2.26 0 0 1 3.278 0 .25.25 0 0 0 .169.067c.062 0 .124-.024.17-.067a.25.25 0 0 0 0-.339 2.26 2.26 0 0 1-.692-1.629 2.26 2.26 0 0 1 .692-1.629c.038-.048.059-.108.059-.17s-.021-.121-.059-.17a.25.25 0 0 0-.174-.056c-.063.004-.122.032-.165.078zm12.705-20.995a2.26 2.26 0 0 1-3.278 0 .25.25 0 0 0-.169-.067c-.062 0-.124.024-.17.067s-.065.099-.065.158.023.116.065.158a2.26 2.26 0 0 1 .52.748c.121.282.183.586.183.893s-.062.611-.183.892a2.26 2.26 0 0 1-.52.748.25.25 0 0 0 .183.37c.054.008.109-.003.156-.03a2.26 2.26 0 0 1 3.278 0c.042.041.099.065.158.065s.116-.023.158-.065a.25.25 0 0 0 0-.339 2.26 2.26 0 0 1-.52-.748c-.121-.282-.183-.586-.183-.892a2.27 2.27 0 0 1 .183-.893 2.26 2.26 0 0 1 .52-.748c.041-.042.065-.099.065-.158s-.023-.116-.065-.158-.099-.065-.158-.065-.116.023-.158.065z" fill="#f44336"/><defs><linearGradient id="A" x1="137.335" y1="87.512" x2="137.58" y2="70.344" xlink:href="#F"><stop offset=".267" stop-color="#82aec0"/><stop offset="1" stop-color="#82aec0" stop-opacity="0"/></linearGradient><linearGradient id="B" x1="90.413" y1="83.94" x2="132.859" y2="83.94" xlink:href="#F"><stop stop-color="#2f7889"/><stop offset="1" stop-color="#82aec0"/></linearGradient><linearGradient id="C" x1="78.578" y1="83.94" x2="36.226" y2="83.94" xlink:href="#F"><stop stop-color="#2f7889"/><stop offset="1" stop-color="#82aec0"/></linearGradient><linearGradient id="D" x1="31.755" y1="87.512" x2="31.508" y2="70.344" xlink:href="#F"><stop offset=".267" stop-color="#82aec0"/><stop offset="1" stop-color="#82aec0" stop-opacity="0"/></linearGradient><linearGradient id="E" x1="84.552" y1="21.464" x2="84.552" y2="91.996" xlink:href="#F"><stop stop-color="#e6e6e6"/><stop offset="1" stop-color="#fff"/></linearGradient><linearGradient id="F" gradientUnits="userSpaceOnUse"/></defs></svg>