<svg xmlns="http://www.w3.org/2000/svg" width="39" height="34" fill="none" xmlns:v="https://vecta.io/nano"><g clip-path="url(#A)" fill="#585858"><path fill-rule="evenodd" d="M7.833 2.593c-1.794 8.769-5.174 26.37-4.348 26.623 1.033.317 3.851.333 4.684-.541.383-.402.4-1.752.417-3.141.02-1.633.041-3.32.658-3.589 1.141-.497 4.276-1.513 4.971-1.018.508.362.838 2.781 1.053 4.356.079.58.143 1.045.194 1.251.189.764 5.032-.293 5.269-1.068S12.707 2.816 11.674 2.5c-.826-.253-2.905-.043-3.841.093zm2.356 8.429c-.564 1.792-2.093 6.645-1.465 7.093.695.495 4.774-.372 4.842-1.057s-3.078-6.992-3.233-6.497l-.145.462z"/><path d="M7.833 2.593l-.144-.99-.695.101-.141.688.98.2zm.336 26.082l-.724-.69h0l.724.69zm.417-3.141l-1-.012h0l1 .012zm.658-3.589l-.4-.917h0l.4.917zm4.971-1.018l-.58.814h0l.58-.814zm1.053 4.356l-.991.135h0l.991-.135zm.194 1.251l.971-.241h0l-.971.241zm-6.737-8.419l-.58.814h0l.58-.814zm1.465-7.093l-.954-.3h0l.954.3zm3.377 6.035l-.995-.1h0l.995.1zm-3.233-6.497l-.954-.299-.002.006.956.293zm-6.556 17.7a.89.89 0 0 1 .559.485c.034.079.036.124.031.089a3.03 3.03 0 0 1-.008-.442c.015-.475.082-1.18.195-2.084l1.106-7.037c.964-5.515 2.255-12.098 3.151-16.477l-1.959-.401-3.162 16.533c-.484 2.768-.888 5.285-1.12 7.132-.115.919-.191 1.699-.21 2.269-.009.278-.006.552.026.783a1.66 1.66 0 0 0 .115.431c.056.13.24.494.69.632l.586-1.912zm3.667-.275c-.031.032-.165.131-.495.228-.308.09-.695.152-1.118.181-.871.061-1.699-.026-2.054-.135l-.586 1.912c.677.208 1.775.288 2.78.218.515-.036 1.054-.114 1.54-.257.465-.136.995-.363 1.381-.768l-1.448-1.379zm.141-2.464c-.009.708-.017 1.346-.067 1.857a3.6 3.6 0 0 1-.091.569c-.041.149-.059.117.017.038l1.448 1.379c.267-.28.394-.632.465-.892.077-.282.122-.594.152-.902.059-.612.067-1.343.076-2.025l-2-.025zm1.258-4.493c-.51.223-.761.672-.888.988a4.5 4.5 0 0 0-.256 1.084c-.094.729-.103 1.624-.113 2.421l2 .025c.01-.835.021-1.601.097-2.191.038-.296.086-.487.129-.593.051-.127.034.011-.168.099l-.799-1.833zm5.951-.915c-.282-.201-.598-.27-.827-.297-.245-.03-.501-.025-.744-.005-.487.04-1.04.15-1.571.283-1.064.267-2.186.663-2.809.934l.799 1.833c.517-.226 1.534-.586 2.496-.828.482-.121.915-.203 1.247-.23.166-.014.278-.011.342-.003.08.01.015.018-.094-.059l1.161-1.629zm1.463 5.035c-.106-.78-.247-1.812-.428-2.697-.09-.441-.196-.877-.324-1.241-.064-.182-.141-.371-.237-.543a1.67 1.67 0 0 0-.475-.553l-1.161 1.629c-.112-.08-.138-.15-.11-.1.02.035.053.107.095.228.084.24.169.575.252.981.165.809.297 1.773.406 2.567l1.982-.27zm.173 1.145c-.034-.138-.089-.527-.173-1.145l-1.982.27c.074.541.146 1.083.214 1.356l1.941-.481zm3.342-1.12c.082-.267.256-.331.123-.245-.078.051-.22.125-.435.21-.422.169-.997.335-1.59.46s-1.156.197-1.549.2c-.095.001-.171-.003-.23-.008-.029-.003-.051-.006-.067-.009s-.023-.005-.022-.004.014.004.035.014a.58.58 0 0 1 .105.062c.096.071.231.214.287.44l-1.941.481c.162.654.749.865.97.927.285.081.6.099.879.097.575-.005 1.277-.102 1.945-.243s1.363-.337 1.921-.56c.276-.11.553-.241.785-.393.178-.116.555-.384.696-.844l-1.912-.586zM11.381 3.456c-.144-.044-.235-.111-.269-.137-.039-.031-.06-.054-.062-.056s.018.021.063.089c.088.134.211.348.367.652.309.601.706 1.461 1.161 2.508.908 2.09 2.025 4.864 3.105 7.66l2.871 7.754c.377 1.078.679 1.982.878 2.636a12.83 12.83 0 0 1 .21.751 1.88 1.88 0 0 1 .032.155c.001.009-.001-.005-.002-.036 0-.014-.003-.121.039-.259l1.912.586c.05-.162.05-.303.049-.362-.001-.075-.009-.144-.016-.199a3.74 3.74 0 0 0-.067-.343c-.055-.234-.139-.533-.244-.877a75.2 75.2 0 0 0-.904-2.713c-.762-2.177-1.808-5.004-2.893-7.814s-2.212-5.611-3.136-7.737c-.461-1.06-.877-1.967-1.217-2.626-.168-.327-.329-.615-.475-.837-.072-.109-.156-.227-.251-.331-.061-.068-.256-.281-.566-.376l-.586 1.912zm-3.403.127a21.56 21.56 0 0 1 1.868-.184c.758-.039 1.314-.011 1.535.057l.586-1.912c-.605-.185-1.501-.179-2.223-.142a23.55 23.55 0 0 0-2.055.202l.289 1.979zM9.305 17.3c.175.125.241.274.26.323s.018.073.014.035a2.51 2.51 0 0 1 .023-.473c.056-.481.193-1.135.378-1.87.366-1.46.88-3.093 1.163-3.993l-1.908-.601c-.281.892-.813 2.581-1.196 4.108-.19.758-.353 1.513-.424 2.124-.035.3-.054.615-.027.897.014.142.042.314.109.488s.193.41.447.591L9.305 17.3zm3.267-.343c.037-.365.283-.502.201-.442-.029.021-.115.073-.283.144-.326.138-.799.279-1.321.391s-1.039.185-1.451.205c-.208.01-.363.004-.464-.009-.135-.017-.07-.033.051.053l-1.161 1.629c.295.21.639.275.861.303.255.032.533.035.806.022.55-.026 1.184-.119 1.78-.247s1.197-.301 1.676-.504c.235-.099.484-.223.694-.379.157-.116.546-.43.6-.967l-1.99-.2zm-1.283-6.099c-.048.153-.224.532-.695.646a.95.95 0 0 1-.717-.107c-.134-.082-.187-.167-.139-.106.055.069.161.228.316.488.298.503.692 1.242 1.085 2.032s.775 1.606 1.052 2.261c.139.329.246.604.315.807.034.102.054.171.063.211.016.069-.01-.002.003-.133l1.99.2c.022-.217-.021-.418-.044-.516-.029-.128-.071-.264-.116-.399-.091-.271-.22-.598-.368-.949-.298-.704-.699-1.561-1.104-2.373s-.822-1.598-1.155-2.16c-.161-.272-.326-.531-.472-.714a1.52 1.52 0 0 0-.386-.356c-.083-.051-.39-.227-.796-.128-.492.12-.684.516-.741.7l1.909.598zm-.145.464l.147-.469-1.912-.586-.142.455 1.908.601z"/><path d="M27.634 10.218l.218 1.292a2 2 0 0 1-1.639 2.305l-1.598.27c-1.07.181-1.791 1.195-1.611 2.265s1.195 1.791 2.265 1.611l1.598-.27a2 2 0 0 1 2.305 1.639l.632 3.74c.152.901 1.006 1.509 1.908 1.356s1.509-1.006 1.356-1.908l-.632-3.74a2 2 0 0 1 1.639-2.305l1.394-.235c1.07-.181 1.791-1.195 1.611-2.265s-1.195-1.792-2.265-1.611l-1.394.235a2 2 0 0 1-2.305-1.639l-.218-1.292c-.152-.901-1.006-1.509-1.908-1.356s-1.509 1.006-1.356 1.908z" stroke="#585858"/></g><defs><clipPath id="A"><path fill="#fff" d="M0 0h39v34H0z"/></clipPath></defs></svg>