<svg xmlns="http://www.w3.org/2000/svg" width="1414" height="526" fill="#fff" xmlns:v="https://vecta.io/nano"><path d="M472.378 264.893l-164.657.455c-.664 0-1.038-.699-.363-.895 5.814-1.936 12.407-1.545 18.45-2.915 3.55-.811 5.741-2.369 8.202-4.194 2.045-1.567 4.687-2.727 7.641-3.355 2.698-.55 5.563-.61 8.306-.175 2.98.476 5.565 1.622 8.4 2.349a23.14 23.14 0 0 0 18.937-3.425c4.153-2.894 8.223-5.592 13.872-7.185 4.724-1.3 9.967-1.573 14.691-.133 5.388 1.642 9.074 4.942 14.13 6.927 5.991 2.355 13.165 1.803 19.779 2.509s11.701 4.466 17.505 6.626c1.895.818 4.084 1.274 6.333 1.321a55.17 55.17 0 0 0 3.852-.37c1.994-.161 3.894-.126 5.191.999.395.301.322 1.461-.269 1.461zm663.332 94.523l-120.21.336c-.49 0-.75-.489-.27-.65 4.25-1.398 9.06-1.132 13.5-2.132 2.59-.587 4.15-1.733 5.98-3.041 1.49-1.143 3.42-1.991 5.57-2.453 1.98-.398 4.07-.441 6.08-.126 2.17.35 4.06 1.188 6.13 1.713 5.14 1.307 10.15.07 13.82-2.496 3.03-2.097 6.01-4.11 10.12-5.249 1.69-.51 3.51-.782 5.36-.798 1.84-.017 3.68.221 5.38.7 3.92 1.202 6.62 3.607 10.31 5.061 4.38 1.719 9.61 1.314 14.44 1.831s8.55 3.257 12.78 4.837c1.38.598 2.98.931 4.62.965.95 0 1.88-.189 2.82-.266 1.45-.126 2.84-.098 3.82.699.21.231.17 1.069-.25 1.069zM132.732 449.843l-120.219.329c-.478 0-.737-.49-.26-.65 4.246-1.398 9.053-1.133 13.497-2.097 2.596-.587 4.153-1.734 5.991-3.041 1.496-1.141 3.422-1.989 5.575-2.453 1.971-.394 4.06-.438 6.063-.126 2.18.349 4.06 1.188 6.136 1.719 5.191 1.308 10.144.063 13.819-2.502 3.032-2.097 6.012-4.103 10.133-5.242 1.681-.513 3.501-.786 5.346-.804a19.28 19.28 0 0 1 5.379.699c3.935 1.202 6.624 3.614 10.32 5.061 4.371 1.719 9.604 1.314 14.442 1.831s8.535 3.264 12.781 4.837c1.38.6 2.978.934 4.62.964.945 0 1.869-.188 2.814-.265 1.454-.119 2.834-.091 3.821.699.207.188.155 1.041-.26 1.041zm1014.998-272.59l-120.2.335c-.49 0-.75-.489-.27-.65 4.24-1.398 9.06-1.132 13.49-2.097 2.6-.587 4.16-1.733 5.99-3.04 1.46-1.159 3.35-2.031 5.47-2.523a17.39 17.39 0 0 1 6.08-.126c2.17.349 4.06 1.188 6.12 1.712 5.2 1.307 10.16.07 13.83-2.495 3.03-2.097 6-4.11 10.13-5.249 1.68-.51 3.5-.782 5.35-.799s3.68.222 5.38.701c3.93 1.202 6.63 3.606 10.31 5.06 4.38 1.72 9.62 1.314 14.44 1.832 4.83.517 8.55 3.257 12.79 4.837 1.38.597 2.97.931 4.62.964.94 0 1.87-.189 2.81-.266 1.45-.125 2.84-.097 3.82.699.28.224.24 1.105-.16 1.105zM160.446 62.685c-.124.238-168.83 0-166.701 0 .976 0-1.474-.978-.519-1.293 5.492-1.838 11.504-1.887 17.484-2.258 3.532-.102 6.999-.669 10.206-1.671 3.177-1.118 5.191-3.068 7.424-4.893 3.479-2.772 7.95-4.902 12.991-6.187s10.486-1.684 15.82-1.159c11.992 1.265 21.45 7.416 33.463 8.548 7.216.699 14.048-1.202 21.097-1.866 5.814-.538 10.652.224 15.843 1.957 3.811 1.265 7.33 2.335 11.629 2.537 3.301.154 6.614-.098 9.926-.119 5.421.067 10.619 1.464 14.618 3.928.53.349 2.201 2.474-3.281 2.474zm421.417-43.151c-6.593 0-171.166-.776-217.649-.776-3.25 0 .862-3.788 2.648-4.047 5.72-.846 11.68-.888 17.484-1.293 5.714-.366 11.314-1.309 16.612-2.796 4.578-1.3 9.136-2.796 14.089-3.32 9.583-1.014 17.982 2.481 26.994 4.019a29.88 29.88 0 0 0 8.401.416c2.812-.258 5.515-.909 7.931-1.912 4.153-1.678 7.922-3.691 12.262-5.172C478.947 1.9 488.014.332 497.269.047s18.496.719 27.147 2.949c4.125 1.065 8.068 2.424 11.764 4.054 4.381 1.936 8.16 4.41 12.562 6.326 9.75 4.25 21.804 2.866 32.435 5.298.592.119 1.246.86.686.86z" fill-opacity=".25"/><path d="M594.862 525.534c-6.593 0-171.166-.775-217.649-.775-3.25 0 .862-3.789 2.648-4.048 5.72-.845 11.68-.887 17.484-1.293 5.714-.366 11.314-1.308 16.612-2.796 4.578-1.3 9.136-2.795 14.089-3.32 9.583-1.013 17.982 2.482 26.994 4.019a29.88 29.88 0 0 0 8.401.417c2.813-.258 5.515-.909 7.931-1.912 4.153-1.678 7.922-3.691 12.262-5.173 8.312-2.753 17.38-4.321 26.634-4.606s18.496.719 27.147 2.95c4.125 1.065 8.068 2.424 11.764 4.054 4.381 1.936 8.16 4.41 12.562 6.325 9.75 4.25 21.804 2.866 32.435 5.299.592.118 1.246.859.686.859z" fill-opacity=".42"/><path d="M1412.73 19.868l-120.21.329c-.48 0-.74-.489-.27-.65 4.25-1.398 9.07-1.132 13.5-2.097 2.59-.587 4.15-1.726 5.98-3.041 1.5-1.141 3.42-1.986 5.58-2.446a17.35 17.35 0 0 1 6.07-.133c2.17.35 4.06 1.188 6.14 1.72 5.14 1.307 10.14.063 13.82-2.502 3.03-2.097 6-4.103 10.12-5.242 1.68-.513 3.5-.787 5.35-.804s3.68.223 5.38.706c3.93 1.195 6.63 3.607 10.31 5.054 4.38 1.726 9.62 1.314 14.45 1.838 4.82.524 8.54 3.257 12.78 4.837 1.38.595 2.98.926 4.62.958.94 0 1.88-.189 2.81-.266 1.45-.119 2.85-.091 3.82.699.22.196.18 1.041-.25 1.041z" fill-opacity=".25"/></svg>