<svg xmlns="http://www.w3.org/2000/svg" width="382" height="509" fill="none" xmlns:v="https://vecta.io/nano"><style><![CDATA[.B{fill:#fff}.C{opacity:.5}.D{fill:#ff9500}.E{fill:#0d0d80}.F{fill:#2aac7e}.G{stroke-linecap:round}.H{stroke-linejoin:round}.I{fill:#ff3b30}.J{stroke:#ff9500}.K{stroke:#2aac7e}.L{stroke-width:2.003}.M{stroke-width:1.829}.N{stroke-width:1.858}.O{stroke-width:1.945}.P{stroke-width:.464}]]></style><g clip-path="url(#AL)"><mask id="A" maskUnits="userSpaceOnUse" x="-1" y="0" width="383" height="509"><path d="M381.748 0H-.002v509h381.75V0z" class="B"/></mask><g mask="url(#A)"><mask id="B" maskUnits="userSpaceOnUse" x="-6460" y="-6394" width="12789" height="12788"><path d="M-6459.04-6393.84H6328.65V6393.84H-6459.04V-6393.84z" class="B"/></mask><g mask="url(#B)"><mask id="C" maskUnits="userSpaceOnUse" x="-5948" y="-6394" width="12789" height="12788"><path d="M6840.16-6393.84H-5947.53V6393.84H6840.16V-6393.84z" class="B"/></mask><g mask="url(#C)" class="E"><g class="C"><path d="M212.349 155.002l6.527 1.167 1.533-8.579-6.527-1.166-1.533 8.578z"/></g></g><mask id="D" maskUnits="userSpaceOnUse" x="-5948" y="-6394" width="12789" height="12788"><path d="M6840.16-6393.84H-5947.53V6393.84H6840.16V-6393.84z" class="B"/></mask><g mask="url(#D)" class="D"><path d="M326.637 129.012l6.005 2.319 3.209-8.31-6.004-2.319-3.21 8.31z"/></g><mask id="E" maskUnits="userSpaceOnUse" x="-5948" y="-6394" width="12789" height="12788"><path d="M6840.16-6393.84H-5947.53V6393.84H6840.16V-6393.84z" class="B"/></mask><g mask="url(#E)" class="D"><g class="C"><path d="M290.047 109.923l3.076-.458-1.344-9.027-3.076.458 1.344 9.027z"/></g></g><mask id="F" maskUnits="userSpaceOnUse" x="-5948" y="-6394" width="12789" height="12788"><path d="M6840.16-6393.84H-5947.53V6393.84H6840.16V-6393.84z" class="B"/></mask><g mask="url(#F)" class="F"><path d="M248.272 131.383l3.263.583 1.533-8.578-3.263-.583-1.533 8.578z"/></g><mask id="G" maskUnits="userSpaceOnUse" x="-5948" y="-6394" width="12789" height="12788"><path d="M6840.16-6393.84H-5947.53V6393.84H6840.16V-6393.84z" class="B"/></mask><g mask="url(#G)" class="I"><g class="C"><path d="M205.778 72.493c1.206 2.222 3.402 3.366 4.902 2.552s1.739-3.279.533-5.501-3.402-3.366-4.902-2.552-1.738 3.279-.533 5.501z"/></g></g><mask id="H" maskUnits="userSpaceOnUse" x="-5948" y="-6394" width="12789" height="12788"><path d="M6840.16-6393.84H-5947.53V6393.84H6840.16V-6393.84z" class="B"/></mask><g mask="url(#H)" class="D"><path d="M314.503 219.47c.084-2.185-1.51-4.022-3.557-4.101s-3.777 1.632-3.86 3.816 1.51 4.022 3.557 4.101 3.777-1.632 3.86-3.816z"/></g><mask id="I" maskUnits="userSpaceOnUse" x="-5948" y="-6394" width="12789" height="12788"><path d="M6840.16-6393.84H-5947.53V6393.84H6840.16V-6393.84z" class="B"/></mask><g mask="url(#I)" class="G H J L"><path d="M300.962 106.313a12.18 12.18 0 0 0 .111 2.816c1.521 9.602 15.21 14.288 16.731 23.891 1.491 9.414-10.12 17.847-8.629 27.261.476 3.009 2.195 5.509 4.362 7.826"/></g><mask id="J" maskUnits="userSpaceOnUse" x="-5948" y="-6394" width="12789" height="12788"><path d="M6840.16-6393.84H-5947.53V6393.84H6840.16V-6393.84z" class="B"/></mask><g mask="url(#J)" class="G H K M"><path d="M275.929 79.364c-2.961 4.262-5.904 8.526-5.651 13.354.499 9.519 13.61 15.353 14.109 24.871.334 6.377-5.135 11.701-8.63 17.383"/></g><mask id="K" maskUnits="userSpaceOnUse" x="-5948" y="-6394" width="12789" height="12788"><path d="M6840.16-6393.84H-5947.53V6393.84H6840.16V-6393.84z" class="B"/></mask><g mask="url(#K)" class="F"><g class="C"><path d="M247.223 117.386l-7.998-4.144-2.916 5.628 7.998 4.144 2.916-5.628z"/></g></g><mask id="L" maskUnits="userSpaceOnUse" x="-5948" y="-6394" width="12789" height="12788"><path d="M6840.16-6393.84H-5947.53V6393.84H6840.16V-6393.84z" class="B"/></mask><g mask="url(#L)" class="F"><path d="M361.498 118.972l-8.902.83.594 6.377 8.902-.83-.594-6.377z"/></g><mask id="M" maskUnits="userSpaceOnUse" x="-5948" y="-6394" width="12789" height="12788"><path d="M6840.16-6393.84H-5947.53V6393.84H6840.16V-6393.84z" class="B"/></mask><g mask="url(#M)" class="E"><g class="C"><path d="M322.947 101.523l-4.513-.672-.916 6.152 4.513.672.916-6.152z"/></g></g><mask id="N" maskUnits="userSpaceOnUse" x="-5948" y="-6394" width="12789" height="12788"><path d="M6840.16-6393.84H-5947.53V6393.84H6840.16V-6393.84z" class="B"/></mask><g mask="url(#N)" class="D"><path d="M272.308 126.935l1.966 3.889 5.918-2.992-1.966-3.889-5.918 2.992z"/></g><mask id="O" maskUnits="userSpaceOnUse" x="-5948" y="-6394" width="12789" height="12788"><path d="M6840.16-6393.84H-5947.53V6393.84H6840.16V-6393.84z" class="B"/></mask><g mask="url(#O)" class="E"><g class="C"><path d="M167.225 95.131c-.797-1.591-3.226-1.989-5.421-.889s-3.33 3.285-2.533 4.876 3.227 1.989 5.422.889 3.33-3.285 2.532-4.876z"/></g></g><mask id="P" maskUnits="userSpaceOnUse" x="-5948" y="-6394" width="12789" height="12788"><path d="M6840.16-6393.84H-5947.53V6393.84H6840.16V-6393.84z" class="B"/></mask><g mask="url(#P)" class="D"><path d="M326.437 156.455c.763-1.725-.36-3.898-2.506-4.848s-4.51-.321-5.274 1.404.359 3.898 2.506 4.848 4.51.321 5.274-1.404z"/></g><mask id="Q" maskUnits="userSpaceOnUse" x="-5948" y="-6394" width="12789" height="12788"><path d="M6840.16-6393.84H-5947.53V6393.84H6840.16V-6393.84z" class="B"/></mask><g mask="url(#Q)" class="G H K N"><path d="M306.88 79.401c3.536 5.017 7.919 9.86 7.772 15.629-.242 9.528-13.191 15.713-13.434 25.241-.148 5.818 4.498 10.632 8.084 15.668"/></g><mask id="R" maskUnits="userSpaceOnUse" x="-5948" y="-6394" width="12789" height="12788"><path d="M6840.16-6393.84H-5947.53V6393.84H6840.16V-6393.84z" class="B"/></mask><g mask="url(#R)" class="G H O"><path d="M312.904 39.511c.34 8.689-8.553 17.54-6.394 26.197 2.305 9.248 16.289 12.474 18.595 21.722.975 3.911-.399 7.851-2.136 11.795" stroke="#0d0d80"/></g></g><mask id="S" maskUnits="userSpaceOnUse" x="-6460" y="-6394" width="12789" height="12788"><path d="M-6459.04-6393.84H6328.65V6393.84H-6459.04V-6393.84z" class="B"/></mask><g mask="url(#S)"><mask id="T" maskUnits="userSpaceOnUse" x="-6460" y="-6394" width="12789" height="12788"><path d="M-6459.04-6393.84H6328.65V6393.84H-6459.04V-6393.84z" class="B"/></mask><g mask="url(#T)" class="E"><g class="C"><path d="M168.769 155.002l-6.527 1.167-1.533-8.579 6.527-1.166 1.533 8.578z"/></g></g><mask id="U" maskUnits="userSpaceOnUse" x="-6460" y="-6394" width="12789" height="12788"><path d="M-6459.04-6393.84H6328.65V6393.84H-6459.04V-6393.84z" class="B"/></mask><g mask="url(#U)" class="D"><path d="M54.476 129.012l-6.004 2.319-3.209-8.31 6.004-2.319 3.21 8.31z"/></g><mask id="V" maskUnits="userSpaceOnUse" x="-6460" y="-6394" width="12789" height="12788"><path d="M-6459.04-6393.84H6328.65V6393.84H-6459.04V-6393.84z" class="B"/></mask><g mask="url(#V)" class="D"><g class="C"><path d="M91.066 109.923l-3.076-.458 1.344-9.027 3.076.458-1.344 9.027z"/></g></g><mask id="W" maskUnits="userSpaceOnUse" x="-6460" y="-6394" width="12789" height="12788"><path d="M-6459.04-6393.84H6328.65V6393.84H-6459.04V-6393.84z" class="B"/></mask><g mask="url(#W)" class="F"><path d="M132.846 131.383l-3.264.583-1.533-8.578 3.263-.583 1.534 8.578z"/></g><mask id="X" maskUnits="userSpaceOnUse" x="-6460" y="-6394" width="12789" height="12788"><path d="M-6459.04-6393.84H6328.65V6393.84H-6459.04V-6393.84z" class="B"/></mask><g mask="url(#X)" class="I"><g class="C"><path d="M175.343 72.492c-1.206 2.222-3.402 3.366-4.902 2.552s-1.739-3.279-.533-5.501 3.402-3.366 4.902-2.552 1.738 3.279.533 5.501z"/></g></g><mask id="Y" maskUnits="userSpaceOnUse" x="-6460" y="-6394" width="12789" height="12788"><path d="M-6459.04-6393.84H6328.65V6393.84H-6459.04V-6393.84z" class="B"/></mask><g mask="url(#Y)" class="D"><path d="M66.615 219.47c-.084-2.185 1.51-4.022 3.557-4.101s3.777 1.632 3.861 3.816-1.51 4.022-3.557 4.101-3.777-1.632-3.86-3.816z"/></g><mask id="Z" maskUnits="userSpaceOnUse" x="-6460" y="-6394" width="12789" height="12788"><path d="M-6459.04-6393.84H6328.65V6393.84H-6459.04V-6393.84z" class="B"/></mask><g mask="url(#Z)" class="G H J L"><path d="M80.159 106.313c.069.929.039 1.867-.111 2.816-1.521 9.602-15.21 14.288-16.731 23.891-1.491 9.414 10.12 17.847 8.629 27.261-.477 3.009-2.195 5.509-4.362 7.826"/></g><mask id="a" maskUnits="userSpaceOnUse" x="-6460" y="-6394" width="12789" height="12788"><path d="M-6459.04-6393.84H6328.65V6393.84H-6459.04V-6393.84z" class="B"/></mask><g mask="url(#a)" class="G H K M"><path d="M105.192 79.363c2.961 4.262 5.904 8.526 5.651 13.354-.499 9.519-13.61 15.353-14.109 24.871-.334 6.377 5.135 11.701 8.63 17.383"/></g><mask id="b" maskUnits="userSpaceOnUse" x="-6460" y="-6394" width="12789" height="12788"><path d="M-6459.04-6393.84H6328.65V6393.84H-6459.04V-6393.84z" class="B"/></mask><g mask="url(#b)" class="F"><g class="C"><path d="M133.891 117.388l7.997-4.144 2.916 5.627-7.997 4.144-2.916-5.627z"/></g></g><mask id="c" maskUnits="userSpaceOnUse" x="-6460" y="-6394" width="12789" height="12788"><path d="M-6459.04-6393.84H6328.65V6393.84H-6459.04V-6393.84z" class="B"/></mask><g mask="url(#c)" class="F"><path d="M19.624 118.972l8.902.83-.594 6.377-8.902-.83.594-6.377z"/></g><mask id="d" maskUnits="userSpaceOnUse" x="-6460" y="-6394" width="12789" height="12788"><path d="M-6459.04-6393.84H6328.65V6393.84H-6459.04V-6393.84z" class="B"/></mask><g mask="url(#d)" class="E"><g class="C"><path d="M58.172 101.523l4.513-.672.916 6.151-4.513.672-.916-6.151z"/></g></g><mask id="e" maskUnits="userSpaceOnUse" x="-6460" y="-6394" width="12789" height="12788"><path d="M-6459.04-6393.84H6328.65V6393.84H-6459.04V-6393.84z" class="B"/></mask><g mask="url(#e)" class="D"><path d="M108.813 126.935l-1.966 3.889-5.917-2.992 1.966-3.889 5.917 2.992z"/></g><mask id="f" maskUnits="userSpaceOnUse" x="-6460" y="-6394" width="12789" height="12788"><path d="M-6459.04-6393.84H6328.65V6393.84H-6459.04V-6393.84z" class="B"/></mask><g mask="url(#f)" class="E"><g class="C"><path d="M213.896 95.13c.797-1.591 3.226-1.989 5.421-.889s3.33 3.285 2.533 4.876-3.227 1.989-5.422.889-3.33-3.285-2.532-4.876z"/></g></g><mask id="g" maskUnits="userSpaceOnUse" x="-6460" y="-6394" width="12789" height="12788"><path d="M-6459.04-6393.84H6328.65V6393.84H-6459.04V-6393.84z" class="B"/></mask><g mask="url(#g)" class="D"><path d="M54.683 156.455c-.764-1.725.359-3.898 2.506-4.848s4.51-.321 5.274 1.404-.359 3.898-2.506 4.848-4.51.321-5.274-1.404z"/></g><mask id="h" maskUnits="userSpaceOnUse" x="-6460" y="-6394" width="12789" height="12788"><path d="M-6459.04-6393.84H6328.65V6393.84H-6459.04V-6393.84z" class="B"/></mask><g mask="url(#h)" class="G H K N"><path d="M74.241 79.401c-3.536 5.017-7.919 9.86-7.772 15.629.243 9.528 13.192 15.713 13.434 25.241.148 5.818-4.498 10.632-8.084 15.668"/></g><mask id="i" maskUnits="userSpaceOnUse" x="-6460" y="-6394" width="12789" height="12788"><path d="M-6459.04-6393.84H6328.65V6393.84H-6459.04V-6393.84z" class="B"/></mask><g mask="url(#i)" class="G H O"><path d="M68.209 39.511c-.341 8.689 8.553 17.54 6.394 26.197-2.306 9.248-16.289 12.474-18.595 21.722-.975 3.911.399 7.851 2.136 11.795" stroke="#0d0d80"/></g></g><mask id="j" maskUnits="userSpaceOnUse" x="-6236" y="-6211" width="12538" height="12538"><path d="M-6235.25-6210.8H6301.7V6326.14H-6235.25V-6210.8z" class="B"/></mask><g mask="url(#j)"><mask id="k" maskUnits="userSpaceOnUse" x="-6324" y="-6261" width="12538" height="12537"><path d="M-6323.01-6260.95H6213.94V6276H-6323.01V-6260.95z" class="B"/></mask><g mask="url(#k)" class="E"><g class="C"><path d="M251.381 193.863l3.614 9.356-8.467 3.27-3.614-9.356 8.467-3.27z"/></g></g><mask id="l" maskUnits="userSpaceOnUse" x="-6324" y="-6261" width="12538" height="12537"><path d="M-6323.01-6260.95H6213.94V6276H-6323.01V-6260.95z" class="B"/></mask><g mask="url(#l)" class="D"><path d="M224.631 278.489l-9.444-3.378 2.776-7.757 9.443 3.378-2.775 7.757z"/></g><mask id="m" maskUnits="userSpaceOnUse" x="-6324" y="-6261" width="12538" height="12537"><path d="M-6323.01-6260.95H6213.94V6276H-6323.01V-6260.95z" class="B"/></mask><g mask="url(#m)" class="D"><g class="C"><path d="M138.167 227.946l1.896 4.642-8.354 3.412-1.897-4.642 8.355-3.412z"/></g></g><mask id="n" maskUnits="userSpaceOnUse" x="-6324" y="-6261" width="12538" height="12537"><path d="M-6323.01-6260.95H6213.94V6276H-6323.01V-6260.95z" class="B"/></mask><g mask="url(#n)" class="F"><path d="M195.386 197.373l-3.859-1.286 3.172-9.515 3.859 1.286-3.172 9.515z"/></g><mask id="o" maskUnits="userSpaceOnUse" x="-6324" y="-6261" width="12538" height="12537"><path d="M-6323.01-6260.95H6213.94V6276H-6323.01V-6260.95z" class="B"/></mask><g mask="url(#o)" class="I"><g class="C"><path d="M90.744 255.79c1.745-1.49 4.621-.992 6.419 1.112s1.841 5.023.096 6.514-4.621.992-6.419-1.112-1.841-5.023-.096-6.514z"/></g></g><mask id="p" maskUnits="userSpaceOnUse" x="-6324" y="-6261" width="12538" height="12537"><path d="M-6323.01-6260.95H6213.94V6276H-6323.01V-6260.95z" class="B"/></mask><g mask="url(#p)" class="D"><path d="M100.986 175.875c2.152-1.211 5.001-.235 6.358 2.176s.713 5.354-1.439 6.565-5 .235-6.358-2.177-.712-5.353 1.439-6.564z"/></g><mask id="q" maskUnits="userSpaceOnUse" x="-6324" y="-6261" width="12538" height="12537"><path d="M-6323.01-6260.95H6213.94V6276H-6323.01V-6260.95z" class="B"/></mask><g mask="url(#q)" class="G H J P"><path d="M277.752 190.854c-.731-1.894-1.576-3.755-2.458-5.524"/></g><mask id="r" maskUnits="userSpaceOnUse" x="-6324" y="-6261" width="12538" height="12537"><path d="M-6323.01-6260.95H6213.94V6276H-6323.01V-6260.95z" class="B"/></mask><g mask="url(#r)" class="E"><g class="C"><path d="M156.435 147.784l8.849.808-.912 9.988-8.849-.808.912-9.988z"/></g></g><mask id="s" maskUnits="userSpaceOnUse" x="-6324" y="-6261" width="12538" height="12537"><path d="M-6323.01-6260.95H6213.94V6276H-6323.01V-6260.95z" class="B"/></mask><g mask="url(#s)" class="F"><path d="M143.389 120.375l-5.927 7.156-7.724-6.397 5.927-7.156 7.724 6.397z"/></g><mask id="t" maskUnits="userSpaceOnUse" x="-6324" y="-6261" width="12538" height="12537"><path d="M-6323.01-6260.95H6213.94V6276H-6323.01V-6260.95z" class="B"/></mask><g mask="url(#t)" class="E"><g class="C"><path d="M178.884 173.149l4.388.471-1.07 9.972-4.388-.471 1.07-9.972z"/></g></g><mask id="u" maskUnits="userSpaceOnUse" x="-6324" y="-6261" width="12538" height="12537"><path d="M-6323.01-6260.95H6213.94V6276H-6323.01V-6260.95z" class="B"/></mask><g mask="url(#u)" class="D"><path d="M215.805 199.259l3.75 2.693-5.85 8.147-3.75-2.693 5.85-8.147z"/></g><mask id="v" maskUnits="userSpaceOnUse" x="-6324" y="-6261" width="12538" height="12537"><path d="M-6323.01-6260.95H6213.94V6276H-6323.01V-6260.95z" class="B"/></mask><g mask="url(#v)" class="E"><g class="C"><path d="M151.113 293.113c-.073-2.767 1.581-5.059 3.691-5.114s3.882 2.145 3.955 4.912-1.581 5.058-3.691 5.114-3.882-2.146-3.955-4.912z"/></g></g><mask id="w" maskUnits="userSpaceOnUse" x="-6324" y="-6261" width="12538" height="12537"><path d="M-6323.01-6260.95H6213.94V6276H-6323.01V-6260.95z" class="B"/></mask><g mask="url(#w)" class="D"><path d="M178.245 214.917c.845-2.635 3.363-4.188 5.619-3.465s3.402 3.45 2.558 6.086-3.363 4.188-5.619 3.465-3.402-3.45-2.558-6.086z"/></g></g><mask id="x" maskUnits="userSpaceOnUse" x="-6221" y="-6211" width="12538" height="12538"><path d="M-6220.83-6210.8H6316.11V6326.14H-6220.83V-6210.8z" class="B"/></mask><g mask="url(#x)"><mask id="y" maskUnits="userSpaceOnUse" x="-5834" y="-6261" width="12538" height="12537"><path d="M6703.5-6260.95H-5833.44V6276H6703.5V-6260.95z" class="B"/></mask><g mask="url(#y)" class="E"><g class="C"><path d="M129.111 193.862l-3.614 9.356 8.467 3.271 3.614-9.356-8.467-3.271z"/></g></g><mask id="z" maskUnits="userSpaceOnUse" x="-5834" y="-6261" width="12538" height="12537"><path d="M6703.5-6260.95H-5833.44V6276H6703.5V-6260.95z" class="B"/></mask><g mask="url(#z)" class="D"><path d="M155.859 278.489l9.444-3.378-2.776-7.757-9.443 3.378 2.775 7.757z"/></g><mask id="AA" maskUnits="userSpaceOnUse" x="-5834" y="-6261" width="12538" height="12537"><path d="M6703.5-6260.95H-5833.44V6276H6703.5V-6260.95z" class="B"/></mask><g mask="url(#AA)" class="D"><g class="C"><path d="M242.327 227.946l-1.896 4.642 8.355 3.412 1.896-4.642-8.355-3.412z"/></g></g><mask id="AB" maskUnits="userSpaceOnUse" x="-5834" y="-6261" width="12538" height="12537"><path d="M6703.5-6260.95H-5833.44V6276H6703.5V-6260.95z" class="B"/></mask><g mask="url(#AB)" class="F"><path d="M185.108 197.374l3.859-1.286-3.172-9.515-3.858 1.286 3.171 9.515z"/></g><mask id="AC" maskUnits="userSpaceOnUse" x="-5834" y="-6261" width="12538" height="12537"><path d="M6703.5-6260.95H-5833.44V6276H6703.5V-6260.95z" class="B"/></mask><g mask="url(#AC)" class="I"><g class="C"><path d="M289.751 255.79c-1.745-1.49-4.621-.992-6.419 1.112s-1.841 5.023-.096 6.514 4.621.992 6.419-1.112 1.84-5.023.096-6.514z"/></g></g><mask id="AD" maskUnits="userSpaceOnUse" x="-5834" y="-6261" width="12538" height="12537"><path d="M6703.5-6260.95H-5833.44V6276H6703.5V-6260.95z" class="B"/></mask><g mask="url(#AD)" class="D"><path d="M279.508 175.875c-2.152-1.211-5.001-.236-6.358 2.176s-.713 5.353 1.439 6.564 5.001.236 6.358-2.176.712-5.354-1.439-6.564z"/></g><mask id="AE" maskUnits="userSpaceOnUse" x="-5834" y="-6261" width="12538" height="12537"><path d="M6703.5-6260.95H-5833.44V6276H6703.5V-6260.95z" class="B"/></mask><g mask="url(#AE)" class="G H J P"><path d="M102.737 190.854c.731-1.894 1.576-3.755 2.458-5.524"/></g><mask id="AF" maskUnits="userSpaceOnUse" x="-5834" y="-6261" width="12538" height="12537"><path d="M6703.5-6260.95H-5833.44V6276H6703.5V-6260.95z" class="B"/></mask><g mask="url(#AF)" class="E"><g class="C"><path d="M224.069 147.784l-8.849.808.912 9.988 8.848-.808-.911-9.988z"/></g></g><mask id="AG" maskUnits="userSpaceOnUse" x="-5834" y="-6261" width="12538" height="12537"><path d="M6703.5-6260.95H-5833.44V6276H6703.5V-6260.95z" class="B"/></mask><g mask="url(#AG)" class="F"><path d="M237.108 120.375l5.927 7.156 7.724-6.397-5.927-7.156-7.724 6.397z"/></g><mask id="AH" maskUnits="userSpaceOnUse" x="-5834" y="-6261" width="12538" height="12537"><path d="M6703.5-6260.95H-5833.44V6276H6703.5V-6260.95z" class="B"/></mask><g mask="url(#AH)" class="E"><g class="C"><path d="M201.608 173.149l-4.387.471 1.069 9.972 4.388-.471-1.07-9.972z"/></g></g><mask id="AI" maskUnits="userSpaceOnUse" x="-5834" y="-6261" width="12538" height="12537"><path d="M6703.5-6260.95H-5833.44V6276H6703.5V-6260.95z" class="B"/></mask><g mask="url(#AI)" class="D"><path d="M164.687 199.261l-3.75 2.693 5.85 8.147 3.75-2.694-5.85-8.146z"/></g><mask id="AJ" maskUnits="userSpaceOnUse" x="-5834" y="-6261" width="12538" height="12537"><path d="M6703.5-6260.95H-5833.44V6276H6703.5V-6260.95z" class="B"/></mask><g mask="url(#AJ)" class="E"><g class="C"><path d="M229.385 293.113c.073-2.767-1.581-5.058-3.691-5.114s-3.882 2.146-3.955 4.913 1.581 5.058 3.691 5.113 3.882-2.145 3.955-4.912z"/></g></g><mask id="AK" maskUnits="userSpaceOnUse" x="-5834" y="-6261" width="12538" height="12537"><path d="M6703.5-6260.95H-5833.44V6276H6703.5V-6260.95z" class="B"/></mask><g mask="url(#AK)" class="D"><path d="M202.247 214.917c-.845-2.635-3.363-4.188-5.619-3.465s-3.402 3.45-2.557 6.086 3.362 4.188 5.618 3.465 3.403-3.45 2.558-6.086z"/></g></g></g></g><defs><clipPath id="AL"><path d="M0 0h381.75v509H0z" class="B"/></clipPath></defs></svg>