<svg xmlns="http://www.w3.org/2000/svg" width="148" height="138" fill="none" xmlns:v="https://vecta.io/nano"><g clip-path="url(#A)"><path d="M123.966 46H11.035C4.94 46 0 49.367 0 53.52v76.96c0 4.153 4.94 7.52 11.035 7.52h112.932c6.094 0 11.034-3.367 11.034-7.52V53.52c0-4.153-4.94-7.52-11.034-7.52z" fill="#ebebeb"/><path d="M145.209 61.698c1.186-7.401-3.851-14.362-11.252-15.549S119.595 50 118.408 57.401s3.851 14.362 11.252 15.549 14.362-3.851 15.549-11.252z" fill="#90caf9"/><path d="M130.607 64.997c-.287.002-.567-.093-.795-.269l-4.772-3.694c-.268-.209-.443-.517-.485-.855s.052-.679.261-.948.516-.443.854-.485.679.052.948.261l3.848 3.002 6.414-7.427c.221-.258.536-.419.875-.445a1.28 1.28 0 0 1 .497.059c.16.052.309.135.437.245s.233.243.309.393a1.27 1.27 0 0 1 .136.482 1.29 1.29 0 0 1-.304.934l-7.171 8.351a1.28 1.28 0 0 1-.48.32c-.182.069-.378.095-.572.077z" fill="#fff"/><g fill="#263238"><path d="M115.414 88.011c0 .066-19.79.422-44.202.787L27 89.339c0-.066 19.789-.422 44.207-.787l44.207-.541zm.066 4.876c0 .071-19.794.422-44.202.787l-44.202.541c0-.066 19.785-.422 44.207-.787l44.197-.541zm.08 4.88c0 .066-19.789.422-44.202.787l-44.212.541c0-.066 19.789-.422 44.207-.787l44.207-.541zm-48.906 5.61c0 .071-8.826.256-19.714.422l-19.723.171c-.005-.066 8.826-.256 19.718-.417l19.718-.176zm49.053 4.145c0 .067-19.794.423-44.202.788l-44.212.54c0-.066 19.785-.422 44.207-.787l44.207-.541zm.071 4.876c0 .071-19.789.422-44.202.787l-44.212.541c0-.067 19.789-.422 44.207-.787l44.207-.541zm-17.487 5.141c0 .071-15.861.365-35.423.654l-35.456.413c-.028-.062 15.861-.365 35.428-.659l35.451-.408zm17.634 4.615c0 .071-19.79.422-44.203.787l-44.212.541c0-.067 19.789-.423 44.207-.788l44.207-.54zm.075 4.88c0 .066-19.794.417-44.207.787l-44.212.541c0-.067 19.789-.422 44.207-.788l44.212-.54z"/></g></g><defs><clipPath id="A"><path fill="#fff" d="M0 0h147.358v138H0z"/></clipPath></defs></svg>