<svg xmlns="http://www.w3.org/2000/svg" width="234" height="170" fill="none" xmlns:v="https://vecta.io/nano"><style><![CDATA[.B{stroke-linejoin:round}.C{fill:#263238}]]></style><g clip-path="url(#A)"><g stroke="#263238" class="B"><path d="M23.548 29h187.726c1.805 0 3.535.717 4.811 1.992a6.8 6.8 0 0 1 1.992 4.81v123.88H16.772V35.803c0-1.8.713-3.526 1.983-4.801s2.993-1.995 4.793-2.002z" fill="#b8b8b8" stroke-opacity=".21"/><path d="M187.054 153.371H48.692v6.819h138.362v-6.819z" class="C"/><path d="M187.054 156.655H48.692v3.535h138.362v-3.535z" fill="#fff"/><path d="M.464 164.232s2.275 2.777 9.077 5.046h216.646s5.051-1.26 7.321-4.806l-233.045-.24z" class="C"/></g><path d="M231.939 159.256H2.061A2.06 2.06 0 0 0 0 161.317v1.185a2.06 2.06 0 0 0 2.061 2.061h229.878a2.06 2.06 0 0 0 2.061-2.061v-1.185a2.06 2.06 0 0 0-2.061-2.061z" fill="#b8b8b8" stroke="#6c6b6b" class="B"/><g class="C"><path d="M119.133 32.935a1.77 1.77 0 0 0-.298-.982c-.194-.291-.47-.517-.793-.651s-.678-.169-1.021-.101-.658.237-.905.484a1.77 1.77 0 0 0-.484.905c-.068.343-.033.698.101 1.021a1.76 1.76 0 0 0 .651.793c.29.194.632.298.982.298.468 0 .918-.186 1.249-.518s.518-.781.518-1.25z"/><g class="B"><path d="M18.646 65.758a.5.5 0 0 1-.358-.145.5.5 0 0 1-.149-.357V50.61a.5.5 0 0 1 .149-.357.5.5 0 0 1 .358-.145.5.5 0 0 1 .502.502v14.647a.5.5 0 0 1-.502.502z" stroke="#fff" stroke-width=".692"/></g></g><path d="M209.908 39.193H24.915v104.546h184.993V39.193z" fill="#fff" stroke="#878787" class="B"/></g><defs><clipPath id="A"><path fill="#fff" d="M0 0h234v169.278H0z"/></clipPath></defs></svg>