<svg xmlns="http://www.w3.org/2000/svg" width="410" height="398" fill="none" xmlns:v="https://vecta.io/nano"><style><![CDATA[.B{fill:#ff9998}.C{fill:#455a64}.D{color-interpolation-filters:sRGB}]]></style><g filter="url(#A)"><path d="M221.398 321.442c-6.732-11.658-11.619-25.182-10.182-38.753l44.292-6.369c9.798 2.571 19.332 7.582 25.683 15.868s8.975 20.195 4.922 29.96c5.388 1.192 10.67 3.437 14.822 7.258s7.069 9.343 7.156 15.154c.05 3.234-1.006 6.799-3.679 8.377-3.077 1.817-6.88.358-10.18-.95-17.298-6.852-36.004-8.808-53.566-14.87-4.491-1.552-8.999-3.431-12.571-6.695-2.741-2.503-4.811-5.715-6.697-8.98z" class="B"/><path d="M149.107 335.435c6.732-11.657 11.619-25.182 10.182-38.753l-44.292-6.369c-9.798 2.572-19.332 7.582-25.683 15.868s-8.975 20.196-4.922 29.961c-5.388 1.191-10.67 3.437-14.822 7.257s-7.068 9.343-7.156 15.155c-.05 3.234 1.006 6.798 3.68 8.377 3.077 1.816 6.88.357 10.179-.95 17.299-6.853 36.005-8.808 53.567-14.871 4.491-1.552 8.999-3.43 12.571-6.695 2.74-2.503 4.811-5.714 6.697-8.98z" class="B"/><path d="M304.908 263.775c-22.465 60.032-41.246 58.497-64.157 69.927s-92.04 17.478-117.048 7.081c-34.959-14.535-39.172-33.105-52.07-77.008-10.897-37.093-18.867-61.079-13.191-100.022 7.589-52.074 28.694-81.968 65.261-107.103l3.472-2.327L140.366 0c6.48 12.392 19.439 37.456 19.439 38.573 25.925-7.89 51.189-4.165 77.759 11.085l7.637-33.726c7.174 13.572 22.216 43.778 24.993 56.022 18.931 14.679 42.066 70.554 45.538 97.109s6.688 47.913-10.824 94.711z" class="B"/><path d="M260.556 246.769c-2.193 21.496 8.848 58.583-14.477 80.282-17.446 16.23-34.916 14.208-58.567 17.109-23.998 2.944-42.026 11.202-61.856-2.632-23.075-16.097-27.419-52.205-20.4-69.095s4.4-43.629 24.348-57.909c11.234-8.041 20.046-10.295 33.561-13.16 24.888-5.277 43.606-11.565 65.147 1.974 16.293 10.24 34.438 21.935 32.244 43.431z" fill="#ffcf87"/><path d="M157.36 117.994c3.5 2.5 6 5.5 6.5 10 .473 4.261-9.5 5.5-9.5 5.5l-4.5-12s6.1-4.5 7.5-3.5z" fill="#fff"/><path d="M155.244 128.515c-2.46-2.314-1.914-6.906 1.239-10.259.164-.173.328-.337.501-.492-1.403-.793-2.943-1.239-4.565-1.239-6.551 0-11.863 7.225-11.863 16.126s5.312 16.127 11.863 16.127 11.863-7.225 11.863-16.127c0-1.594-.173-3.143-.492-4.601-2.952 2.123-6.478 2.405-8.546.465z" fill="url(#C)"/><path d="M247.375 117.849c3.5 2.5 6 5.5 6.5 10 .474 4.261-9.5 5.5-9.5 5.5l-4.5-12s6.1-4.5 7.5-3.5z" fill="#fff"/><path d="M245.475 128.515c-2.46-2.314-1.913-6.906 1.239-10.259.164-.173.328-.337.501-.492-1.403-.793-2.943-1.239-4.564-1.239-6.551 0-11.863 7.225-11.863 16.126s5.312 16.127 11.863 16.127 11.862-7.225 11.862-16.127c0-1.594-.173-3.143-.492-4.601-2.943 2.123-6.478 2.405-8.546.465z" fill="url(#D)"/><path d="M404.711 83.344l-49.937 53.326.656.686 49.937-53.326-.656-.686z" fill="#263238"/><g filter="url(#B)"><path d="M200.276 181.076a1 1 0 0 1-1.804 0l-17.789-37.154a1 1 0 0 1 .902-1.432h35.578a1 1 0 0 1 .902 1.432l-17.789 37.154z" fill="#ff3d00"/></g><path d="M302.326 154.29c12.101 4.756 26.212.98 36.441-7.342s16.992-20.612 21.472-33.401c4.279 11.585 2.698 25.383-4.072 35.558 3.26-3.005 6.103-6.515 8.41-10.382 1.095 7.502-1.736 15.066-5.535 21.508-11.928 20.233-34.436 27.018-57.332 9.948" class="B"/><path d="M68.92 164.333c-3.3 13.183-14.36 23.179-26.697 27.202S16.478 194.306 4 190.794c6.494 10.373 18.08 16.968 29.856 16.996a42.42 42.42 0 0 1-12.881 1.267c5.172 5.272 12.656 7.192 19.83 7.631 22.532 1.379 40.762-14.125 40.762-43.721" class="B"/><path d="M196.497 91.875c5.278-12.444 2.624-27.559-4.577-38.877s-18.377-19.241-30.172-24.791c11.225-3.758 24.161-1.199 33.338 6.595-2.629-3.63-5.761-6.853-9.266-9.535 7.16-.668 14.124 2.805 19.966 7.226 18.347 13.881 23.3 38.04 5.686 61.061" class="B"/><path d="M233.179 181.71c-14.917-4.531-23.845-23.845-20.03-44.802 1.626-10.026 6.351-19.291 13.512-26.495 2.971-3.162 6.661-5.56 10.757-6.989s8.477-1.85 12.77-1.224c8.16 1.457 14.943 7.127 19.182 15.897 4.2 9.238 5.395 19.561 3.418 29.514-3.975 22.097-20.587 37.675-37.092 34.708-.851-.15-1.692-.354-2.517-.609zm18.042-73.655a12.89 12.89 0 0 0-1.987-.477c-3.448-.468-6.957-.099-10.232 1.077s-6.217 3.124-8.579 5.68c-6.326 6.41-10.494 14.634-11.922 23.527-3.445 19.155 4.689 36.694 18.228 39.132s27.262-11.181 30.707-30.31a43.03 43.03 0 0 0-2.968-26.203 22.41 22.41 0 0 0-5.308-7.615c-2.282-2.14-4.986-3.778-7.939-4.811z" class="C"/><path d="M142.91 167.792c-14.916-4.531-23.844-23.845-20.029-44.802a48.62 48.62 0 0 1 13.512-26.495c2.971-3.162 6.661-5.56 10.757-6.99s8.477-1.85 12.77-1.223c8.16 1.457 14.943 7.127 19.182 15.897 4.2 9.238 5.395 19.561 3.418 29.514-3.975 22.097-20.587 37.675-37.093 34.708-.85-.15-1.691-.354-2.517-.609zm18.043-73.655a12.75 12.75 0 0 0-1.987-.477c-3.448-.469-6.957-.099-10.232 1.077s-6.217 3.124-8.579 5.68c-6.326 6.41-10.494 14.634-11.922 23.527-3.445 19.155 4.689 36.694 18.228 39.132s27.262-11.181 30.707-30.31a43.03 43.03 0 0 0-2.968-26.203c-1.219-2.881-3.027-5.475-5.308-7.615a22.42 22.42 0 0 0-7.939-4.811z" class="C"/><path d="M181.718 134.283L178 130.412c9.598-3.255 30.148-6.872 41 3.099L213.237 136c-9.598-8.946-30.654-2.025-31.519-1.717z" class="C"/><path d="M72.175 113.15L70 110.487c.778-1.704 7.81-16.645 14.032-16.486 5.81.213 41.46 16.859 42.968 17.578l-.73 4.421c-10.222-4.794-37.794-17.258-42.286-17.365-4.111-.266-9.905 10.414-11.809 14.515z" class="C"/><path d="M309.398 137.198l1.602-2.619c-.573-1.676-5.108-8.733-9.692-8.576-4.281.209-31.197 8.943-32.308 9.65l.538 4.347c7.532-4.714 28.495-9.336 31.805-9.441 3.029-.261 6.651 2.606 8.055 6.639z" class="C"/></g><defs><filter id="A" x="0" y="0" width="409.367" height="375.783" filterUnits="userSpaceOnUse" class="D"><feFlood flood-opacity="0" result="A"/><feColorMatrix in="SourceAlpha" values="0 0 0 0 0 0 0 0 0 0 0 0 0 0 0 0 0 0 127 0" result="B"/><feOffset dy="4"/><feGaussianBlur stdDeviation="2"/><feComposite in2="B" operator="out"/><feColorMatrix values="0 0 0 0 0 0 0 0 0 0 0 0 0 0 0 0 0 0 0.25 0"/><feBlend in2="A"/><feBlend in="SourceGraphic"/></filter><filter id="B" x="176.584" y="142.49" width="45.58" height="47.154" filterUnits="userSpaceOnUse" class="D"><feFlood flood-opacity="0" result="A"/><feColorMatrix in="SourceAlpha" values="0 0 0 0 0 0 0 0 0 0 0 0 0 0 0 0 0 0 127 0" result="B"/><feOffset dy="4"/><feGaussianBlur stdDeviation="2"/><feComposite in2="B" operator="out"/><feColorMatrix values="0 0 0 0 0 0 0 0 0 0 0 0 0 0 0 0 0 0 0.25 0"/><feBlend in2="A"/><feBlend in="SourceGraphic"/></filter><linearGradient id="C" x1="152.413" y1="116.521" x2="152.413" y2="148.781" gradientUnits="userSpaceOnUse"><stop stop-color="#424242"/><stop offset="1" stop-color="#212121"/></linearGradient><linearGradient id="D" x1="242.65" y1="116.521" x2="242.65" y2="148.781" gradientUnits="userSpaceOnUse"><stop stop-color="#424242"/><stop offset="1" stop-color="#212121"/></linearGradient></defs></svg>