<svg xmlns="http://www.w3.org/2000/svg" width="1006" height="505" fill="none" xmlns:v="https://vecta.io/nano"><style><![CDATA[.B{fill:#fff}.C{fill:#e0e0e0}.D{fill:#7889e0}.E{fill:#d58fff}.F{fill:#ebebeb}.G{fill:#f5f5f5}.H{fill:#263238}.I{color-interpolation-filters:sRGB}.J{flood-opacity:0}.K{fill:#90caf9}.L{fill:#e6e6e6}.M{fill:#f0f0f0}.N{fill:#fafafa}]]></style><path d="M285.944 474.79h23.702v.189h-23.702v-.189zm84.933 2.055h6.219v.189h-6.219v-.189zm-60.515-9.069h13.733v.189h-13.733v-.189zm229.102 1.27h30.909v.189h-30.909v-.189zm-10.907 0h4.53v.189h-4.53v-.189zm-81.771 3.189h67.043v.189h-67.043v-.189zM250.09 462.63h357.826v.189H250.09v-.189z" class="F"/><path d="M397.317 164.238H395.2v37.985h2.117v-37.985z" class="C"/><path d="M396.255 164.237h-33.834v37.986h33.834v-37.986z" class="K"/><path d="M393.629 167.228h-28.171v31.998h28.171v-31.998z" class="B"/><path d="M386.822 186.916a9.25 9.25 0 0 0 .099 1.45l.236 1.128c.095.285.151.583.168.885.003.273-.054.542-.168.787s-.279.458-.484.623a2.29 2.29 0 0 1-1.559.571c-.393.036-.789-.019-1.16-.163a2.67 2.67 0 0 1-.983-.67c-.466-.618-.723-1.382-.733-2.171-.829.993-1.858 1.777-3.012 2.295a9.19 9.19 0 0 1-3.682.709c-1.416.021-2.791-.501-3.87-1.469-.532-.458-.957-1.038-1.244-1.696a4.97 4.97 0 0 1-.408-2.102c-.025-.905.151-1.803.516-2.623a4.41 4.41 0 0 1 1.441-1.731 7.17 7.17 0 0 1 2.161-1.037c.892-.265 1.804-.449 2.726-.55l2.981-.355c.554-.044 1.091-.219 1.572-.511a1.56 1.56 0 0 0 .439-.625c.093-.245.126-.51.095-.772.013-.325-.062-.646-.216-.928s-.381-.51-.654-.659c-.677-.38-1.438-.563-2.204-.531a4.36 4.36 0 0 0-2.18.459c-.587.348-1.128.775-1.609 1.272a5.4 5.4 0 0 1-.931.826c-.283.182-.608.275-.938.269-.55.02-1.085-.19-1.491-.583a1.86 1.86 0 0 1-.438-.631 1.95 1.95 0 0 1-.152-.766c.019-.579.2-1.138.522-1.607a5.22 5.22 0 0 1 1.522-1.522c.769-.504 1.606-.88 2.484-1.115a11.72 11.72 0 0 1 3.266-.419c2.456 0 4.391.437 5.807 1.311.674.388 1.23.969 1.606 1.675s.555 1.51.518 2.319l-.043 8.657zm-4.888-3.712c-.248.226-.538.393-.851.492-.407.133-.822.24-1.242.322l-1.776.282c-.842.081-1.655.364-2.379.826-.254.195-.457.455-.591.755s-.193.632-.172.963c0 .294.067.583.195.844s.311.487.537.658c.573.437 1.27.654 1.975.617 1.131.051 2.239-.347 3.106-1.115a3.39 3.39 0 0 0 .872-1.171c.205-.454.312-.95.314-1.453l.012-2.02z" class="K"/><path d="M281.003 347.486h18.614v20.926h-18.614v-20.926z" class="L"/><path d="M299.617 347.486h4.766v20.926h-4.766v-20.926z" class="G"/><path d="M276.123 344.259h13.983v24.153h-13.983v-24.153z" class="L"/><path d="M290.099 344.259h4.044v24.153h-4.044v-24.153zm-17.698 3.227h13.583v20.926h-13.583v-20.926z" class="M"/><path d="M285.991 347.486h2.691v20.926h-2.691v-20.926z" class="G"/><path d="M329.267 362.54h3.456v7.815h-3.456v-7.815z" class="C"/><path d="M272.186 368.412h73.003v93.976h-73.003v-93.976z" class="F"/><path d="M278.534 378.887h60.823v83.735h-60.823v-83.735z" class="G"/><path d="M331.578 364.211c2.393.006 4.764-.488 6.976-1.456s4.218-2.389 5.905-4.182l-.508-.529c-3.28 3.464-7.73 5.411-12.37 5.411s-9.089-1.947-12.37-5.411-5.124-8.164-5.124-13.063 1.844-9.599 5.124-13.063l-.501-.529c-2.543 2.691-4.274 6.117-4.975 9.846s-.338 7.594 1.04 11.106 3.712 6.514 6.705 8.627 6.512 3.241 10.112 3.243h-.014z" class="C"/><path d="M330.741 358.973c-6.787 0-12.288-5.809-12.288-12.976s5.501-12.976 12.288-12.976 12.287 5.81 12.287 12.976-5.501 12.976-12.287 12.976z" class="F"/><g class="B"><path d="M339.6 355.399c2.291-2.503 3.559-5.856 3.531-9.336s-1.35-6.81-3.68-9.271-5.484-3.857-8.78-3.886-6.47 1.309-8.84 3.728l.393.416c1.117-1.178 2.443-2.112 3.902-2.748s3.021-.964 4.6-.962a11.46 11.46 0 0 1 4.598.97c1.458.639 2.782 1.575 3.897 2.755s1.999 2.579 2.602 4.119.912 3.191.911 4.858-.313 3.317-.919 4.856a12.75 12.75 0 0 1-2.608 4.115l.393.386z"/><path d="M339.6 355.399l-.394-.408a11.98 11.98 0 0 1-3.897 2.748c-1.457.637-3.019.965-4.596.965s-3.139-.329-4.596-.967-2.781-1.572-3.896-2.75-2-2.577-2.603-4.116-.914-3.188-.914-4.854a13.31 13.31 0 0 1 .916-4.853c.604-1.539 1.489-2.937 2.604-4.115l-.394-.415c-1.199 1.224-2.156 2.688-2.814 4.307s-1.004 3.36-1.018 5.122a13.92 13.92 0 0 0 .936 5.139c.631 1.631 1.564 3.112 2.744 4.358a12.55 12.55 0 0 0 4.126 2.898c1.544.667 3.199 1.003 4.867.988s3.317-.381 4.85-1.075 2.92-1.706 4.079-2.972z"/><path d="M326.175 350.811l.393-.408c-2.862-3.023-5.274-8.653-4.294-13.497l-.536-.121c-1.052 5.048 1.452 10.875 4.437 14.026z"/><path d="M339.2 355.202l-.122-.574c-4.58 1.058-9.897-1.466-12.774-4.534l-.394.408c2.984 3.189 8.509 5.804 13.29 4.7zm-4.337-13.565l.393-.408c-2.984-3.159-8.509-5.774-13.289-4.671l.121.575c4.581-1.058 9.898 1.466 12.775 4.504z"/><path d="M339.407 355.013c1.045-5.048-1.431-10.875-4.416-14.034l-.393.416c2.862 3.023 5.274 8.653 4.294 13.497l.515.121z"/><path d="M322.218 336.635l17.378 18.351-.39.412-17.377-18.351.389-.412z"/><path d="M333.247 333.162l.389.412-14.71 15.534-.39-.411 14.711-15.535zm6.109 3.635l.39.412-17.367 18.34-.39-.412 17.367-18.34zm3.25 6.652l.39.411-14.321 15.123-.39-.411 14.321-15.123z"/></g><path d="M356.772 359.88h223.619v6.356H356.772v-6.356zm7.142-133.765h1.524v133.712h-1.524V226.115zm201.921 5.864h1.252v120.314h-1.252V231.979z" class="C"/><path d="M365.46 226.168H573.249V359.88H365.46V226.168Z" class="M"/><path d="M372.23 231.979H567.087V352.293H372.23V231.979Z" class="C"/><path d="M565.936 302.807v56.68h-31.017l31.017-56.68zm-6.756 28.582l-10.928 20.004h10.928v-20.004z" class="N"/><path opacity=".1" d="M444.847 351.99h23.029v.121a1.71 1.71 0 0 1 .787.658c.193.298.295.651.294 1.012v5.328c.001.361-.101.715-.294 1.013a1.71 1.71 0 0 1-.787.657v.121H444.41c-.334 0-.654-.14-.89-.389s-.369-.588-.369-.941v-5.789c0-.475.178-.93.496-1.266s.75-.525 1.2-.525z" fill="#000"/><path d="M444.404 355.671v3.121c0 .175.033.349.096.511s.158.309.275.432.258.222.411.288a1.21 1.21 0 0 0 .485.099h23.466v-4.459l-24.733.008z" class="M"/><path d="M469.137 355.671v-4.437H446.1a1.65 1.65 0 0 0-1.199.525c-.318.336-.497.791-.497 1.266v2.661l24.733-.015z" class="C"/><path d="M461.773 355.671v2.667a1.85 1.85 0 0 0 .498 1.265c.318.335.748.525 1.198.527h5.052a1.62 1.62 0 0 0 .649-.137c.206-.09.393-.222.551-.388s.282-.364.367-.581a1.88 1.88 0 0 0 .129-.686v-2.667h-8.444z" class="N"/><path d="M470.217 355.671v-2.661a1.88 1.88 0 0 0-.129-.685c-.085-.217-.21-.415-.367-.581s-.345-.298-.551-.388a1.62 1.62 0 0 0-.649-.137h-5.052c-.45.002-.88.192-1.198.527a1.85 1.85 0 0 0-.498 1.264v2.661h8.444z" class="F"/><path d="M444.411 356.396h17.211v.378h-17.211v-.378z" class="L"/><path d="M488.194 486.324c-144.806 0-262.194-3.874-262.194-8.651s117.388-8.652 262.194-8.652 262.194 3.874 262.194 8.652-117.388 8.651-262.194 8.651z" class="G"/><path d="M418.884 251.563c0 .676-.111 1.353-.188 2.021l-.274 2.021-.282 2.031-.256 2.039c.009.162.009.325 0 .487s-.009.325 0 .487.008.313 0 .47c0 .162 0 .315-.043.469a2.71 2.71 0 0 1-.119.586c-.06.19-.135.374-.223.551a1.35 1.35 0 0 1-.358.505c-.149.139-.328.235-.522.28-.27.053-.549.012-.794-.117-.238-.122-.435-.317-.564-.56a2.81 2.81 0 0 1-.154-.541c-.027-.191-.041-.384-.043-.578-.013-.198-.013-.397 0-.595v-.587l.188-1.805.231-1.804.248-1.859.213-1.859v-.523-.542a2.54 2.54 0 0 0 0-.523 1.55 1.55 0 0 0-.128-.488l-.333-.342a3.1 3.1 0 0 1-.316-.37 1.63 1.63 0 0 1-.205-.434c-.035-.166-.035-.338 0-.505a2.47 2.47 0 0 1 .162-.695 2.71 2.71 0 0 1 .359-.622c.143-.192.317-.357.513-.488a1.6 1.6 0 0 1 .649-.252 1.81 1.81 0 0 1 .333.126l.316.172a3.25 3.25 0 0 1 .71.595 3.88 3.88 0 0 1 .521.785c.142.286.251.589.325.903a4.34 4.34 0 0 1 .094.992c-.005.093-.005.187 0 .28l-.06.289zm10.169 3.988c-.023.161-.072.317-.146.46a1.78 1.78 0 0 1-.282.397c-.114.111-.244.202-.384.271a1.14 1.14 0 0 1-.453.117h-.743-.752c0 .226-.052.452-.06.686a6.22 6.22 0 0 1-.069.695c-.03.19-.103.37-.213.523a2.09 2.09 0 0 1-.385.406c-.147.13-.311.236-.487.316s-.359.119-.547.118a.95.95 0 0 1-.615-.397c-.147-.208-.247-.449-.29-.704a3.88 3.88 0 0 1-.086-.839v-.804h-.641-.658c-.179-.005-.353-.061-.504-.162a1.19 1.19 0 0 1-.384-.37 2.16 2.16 0 0 1-.257-.487 1.17 1.17 0 0 1-.06-.569 1.34 1.34 0 0 1 .462-.686c.22-.164.466-.287.726-.361a4.21 4.21 0 0 1 .855-.144l.794-.081v-.217l.129-.803a3.56 3.56 0 0 1 .273-.812 2.15 2.15 0 0 1 .487-.623 1.1 1.1 0 0 1 .761-.243.95.95 0 0 1 .427.099 1.24 1.24 0 0 1 .35.262 1.12 1.12 0 0 1 .239.361c.055.143.084.296.086.451-.031.266-.045.535-.043.803a5.13 5.13 0 0 1-.06.803h.24c.259-.017.518-.017.777 0a2.61 2.61 0 0 1 .761.217c.222.103.419.261.572.46a1.03 1.03 0 0 1 .183.407c.031.148.03.302-.003.45zm6.519-3.988c0 .676-.111 1.353-.188 2.021l-.273 2.021-.282 2.031-.257 2.039c.009.162.009.325 0 .487v.487c.009.157.009.313 0 .47 0 .162 0 .315-.042.469a2.77 2.77 0 0 1-.12.586 3.82 3.82 0 0 1-.222.551 1.34 1.34 0 0 1-.359.505 1.14 1.14 0 0 1-.521.28c-.27.053-.549.012-.795-.117-.236-.125-.432-.319-.564-.56-.069-.174-.12-.356-.154-.541-.027-.191-.041-.384-.042-.578-.013-.198-.013-.397 0-.595v-.587l.188-1.805.23-1.804.248-1.859.214-1.859v-.523-.542a2.69 2.69 0 0 0 0-.523c-.017-.169-.06-.334-.128-.488l-.334-.342c-.114-.115-.22-.238-.316-.37-.088-.133-.157-.279-.205-.434-.035-.166-.035-.338 0-.505.021-.239.075-.473.162-.695.093-.223.214-.433.359-.622a2.18 2.18 0 0 1 .513-.488 1.61 1.61 0 0 1 .649-.252 1.82 1.82 0 0 1 .334.126l.316.172c.262.162.5.362.709.595a3.88 3.88 0 0 1 .521.785c.146.284.256.588.325.903.07.325.101.658.094.992v.28l-.06.289zm10.801 5.838c-.051.186-.138.358-.256.505a1.88 1.88 0 0 1-.393.398c-.148.11-.309.198-.479.261-.169.071-.348.107-.53.108l-2.469.082c-.82-.009-1.624 0-2.436-.1-.181-.012-.359-.064-.521-.153-.156-.079-.297-.186-.418-.316-.122-.136-.223-.291-.3-.46-.073-.177-.114-.367-.119-.559a.65.65 0 0 1 .094-.407.87.87 0 0 1 .265-.288 1.51 1.51 0 0 1 .35-.208l.368-.135a7.57 7.57 0 0 1 .854-.19c.283-.042.569-.063.855-.063h.461l.461.045h.975.529.257c.088.013.177.013.265 0h.487a3.55 3.55 0 0 1 .521.081 2.9 2.9 0 0 1 .487.154c.146.06.282.146.402.253a.92.92 0 0 1 .239.406c.06.188.078.389.051.586zm.41-3.609a.94.94 0 0 1-.077.523 1.11 1.11 0 0 1-.316.379 1.27 1.27 0 0 1-.453.226 1.33 1.33 0 0 1-.487 0h-5.588a.92.92 0 0 1-.487-.109c-.142-.073-.267-.178-.368-.306a1.13 1.13 0 0 1-.196-.452c-.043-.171-.043-.351 0-.523a.92.92 0 0 1 .171-.415c.087-.118.191-.221.307-.307s.244-.163.376-.225l.385-.181a3.97 3.97 0 0 1 .854-.226l.855-.108h.436a3.51 3.51 0 0 1 .435 0h.855.273c.094.009.188.009.282 0h.282.291c.25.004.499.035.743.09.249.051.488.142.709.271.211.124.392.297.53.505a1.38 1.38 0 0 1 .188.84v.018zm12.963 7.372c-.218.25-.472.463-.752.632a5.19 5.19 0 0 1-.854.433l-.914.325-.906.288-2.068.47c-.694.126-1.399.171-2.102.135a1.08 1.08 0 0 1-.633-.189c-.175-.122-.324-.282-.435-.47a1.86 1.86 0 0 1-.24-.649 2.86 2.86 0 0 1 0-.704 5.09 5.09 0 0 1 .154-.903 7.25 7.25 0 0 1 .282-.902 8.1 8.1 0 0 1 .402-.821l.453-.785 1.187-1.805 1.197-1.805.478-.803c.161-.266.304-.543.428-.83.128-.293.239-.595.333-.902a5.21 5.21 0 0 0 .188-.903.87.87 0 0 0 0-.297c-.017-.09-.049-.175-.094-.253s-.107-.132-.18-.172a.38.38 0 0 0-.273-.063c-.224.008-.448.038-.667.091a4.15 4.15 0 0 0-.649.216l-.59.262a1.55 1.55 0 0 0-.504.433l-.085.207-.077.19-.06.189a1.17 1.17 0 0 1-.214.425c-.092.132-.201.25-.324.351a1.83 1.83 0 0 1-.41.217 1.28 1.28 0 0 1-.445.081c-.202.019-.405-.028-.581-.135a.77.77 0 0 1-.228-.209c-.062-.085-.106-.183-.131-.287a1.46 1.46 0 0 1-.162-.587 3.18 3.18 0 0 1 0-.632c.051-.323.168-.63.342-.902a3.59 3.59 0 0 1 .632-.785 5.02 5.02 0 0 1 .803-.623l.855-.469a7.83 7.83 0 0 1 1.871-.613 8.63 8.63 0 0 1 1.931-.145c.406-.001.796.161 1.094.451a2.93 2.93 0 0 1 .667 1.011c.173.387.297.797.367 1.218.069.432.094.871.077 1.309-.024.539-.137 1.071-.333 1.57-.19.509-.419 1.001-.684 1.471l-1.008 1.497-1.017 1.48c-.351.497-.624.957-.906 1.444a6.69 6.69 0 0 0-.658 1.57l2.111-.433 2.102-.397a.82.82 0 0 1 .521.135c.146.106.273.237.376.388a1.81 1.81 0 0 1 .256.443c.068.171.094.357.077.541zm-39.922 74.502c-.216.25-.466.463-.744.632s-.558.314-.854.433l-.923.325-.897.288-2.077.47c-.694.126-1.399.171-2.102.135a1.05 1.05 0 0 1-.624-.19c-.18-.118-.332-.278-.444-.469-.112-.201-.19-.42-.231-.65a2.51 2.51 0 0 1 0-.703c.017-.306.066-.609.146-.903a5.89 5.89 0 0 1 .29-.902c.116-.282.247-.556.393-.821l.453-.785 1.188-1.805 1.205-1.805.478-.803a9.31 9.31 0 0 0 .427-.839c.128-.293.236-.594.325-.902.094-.293.157-.596.188-.903.017-.098.017-.199 0-.298-.017-.089-.049-.174-.094-.252-.044-.073-.106-.132-.179-.172a.42.42 0 0 0-.282-.063 3.41 3.41 0 0 0-.667.09 3.87 3.87 0 0 0-.641.217l-.589.262a1.47 1.47 0 0 0-.513.433l-.085.207-.077.19-.052.189a1.28 1.28 0 0 1-.213.424 1.55 1.55 0 0 1-.333.343c-.124.1-.263.176-.411.226-.139.053-.287.081-.435.081a.96.96 0 0 1-.59-.135.77.77 0 0 1-.228-.209c-.062-.085-.106-.183-.131-.288a1.32 1.32 0 0 1-.154-.586 3.92 3.92 0 0 1 0-.632c.052-.323.168-.631.342-.902.18-.288.392-.551.632-.785a5.12 5.12 0 0 1 .812-.623c.277-.172.562-.329.855-.469.601-.282 1.232-.488 1.88-.614.634-.119 1.278-.168 1.922-.144.406-.003.797.159 1.094.451.293.279.521.624.666 1.011.177.385.301.796.368 1.218.068.432.094.871.077 1.308a5.13 5.13 0 0 1-.325 1.571 11.33 11.33 0 0 1-.692 1.47l-1.008 1.498-1.017 1.48c-.351.497-.615.957-.906 1.444-.281.492-.503 1.019-.658 1.57l2.119-.433 2.102-.397c.18-.013.36.034.513.135s.275.235.376.388c.111.131.2.281.265.443.059.176.079.364.06.55zm10.681-5.613a1.27 1.27 0 0 1-.145.46 1.84 1.84 0 0 1-.282.397 1.51 1.51 0 0 1-.385.271 1.1 1.1 0 0 1-.444.117h-.752-.752c0 .226 0 .452-.06.686a6.46 6.46 0 0 1-.068.695 1.13 1.13 0 0 1-.214.523c-.111.153-.24.29-.385.407-.145.127-.306.233-.478.315a1.34 1.34 0 0 1-.556.118.95.95 0 0 1-.615-.397c-.143-.21-.242-.45-.29-.704-.055-.276-.084-.557-.086-.839v-.804h-.632-.658a1.01 1.01 0 0 1-.513-.162 1.18 1.18 0 0 1-.384-.37 2.51 2.51 0 0 1-.248-.487.95.95 0 0 1-.06-.569c.08-.275.242-.515.462-.685a2.22 2.22 0 0 1 .717-.361c.28-.077.566-.126.855-.145l.795-.081v-.217c.029-.269.072-.537.128-.803a3.22 3.22 0 0 1 .282-.812 1.87 1.87 0 0 1 .487-.622c.216-.178.487-.265.76-.244a.94.94 0 0 1 .419.099c.131.063.25.152.35.262.102.103.183.225.24.361.058.142.087.296.085.451 0 .271-.043.541-.043.803a6.33 6.33 0 0 1-.051.803h.239c.257-.002.514.013.769.045a2.6 2.6 0 0 1 .761.217c.224.1.421.259.572.46a1.04 1.04 0 0 1 .173.386 1.07 1.07 0 0 1 .007.426zm12.203 5.613c-.216.25-.467.463-.744.632a5.35 5.35 0 0 1-.854.433l-.915.325-.905.288a19.68 19.68 0 0 1-2.068.47 9.2 9.2 0 0 1-2.102.135 1.09 1.09 0 0 1-.633-.19c-.176-.121-.324-.281-.436-.469a2.06 2.06 0 0 1-.23-.649 2.19 2.19 0 0 1 0-.704c.016-.306.065-.609.145-.903a5.89 5.89 0 0 1 .291-.902c.115-.282.246-.556.393-.821l.452-.785 1.188-1.805 1.205-1.805.47-.803a7.84 7.84 0 0 0 .436-.839 7.69 7.69 0 0 0 .325-.902 5.21 5.21 0 0 0 .188-.903c.021-.098.021-.2 0-.298-.015-.088-.044-.174-.086-.252-.045-.073-.106-.132-.179-.172a.42.42 0 0 0-.282-.063 3.41 3.41 0 0 0-.667.09 4.3 4.3 0 0 0-.649.217l-.581.262a1.47 1.47 0 0 0-.513.433l-.085.207-.077.19-.052.189c-.048.153-.121.296-.213.424a1.67 1.67 0 0 1-.334.343 1.42 1.42 0 0 1-.41.226 1.23 1.23 0 0 1-.436.081c-.205.02-.41-.027-.589-.135a.76.76 0 0 1-.228-.209c-.062-.085-.107-.183-.131-.288a1.31 1.31 0 0 1-.154-.586 2.67 2.67 0 0 1 0-.632c.052-.323.168-.631.342-.902a3.88 3.88 0 0 1 .632-.785c.248-.235.517-.444.804-.623l.854-.469a7.89 7.89 0 0 1 1.871-.614 8.76 8.76 0 0 1 1.932-.144 1.54 1.54 0 0 1 1.093.451 2.93 2.93 0 0 1 .667 1.011 4.71 4.71 0 0 1 .367 1.218c.069.432.095.871.077 1.308a5.13 5.13 0 0 1-.324 1.571 11.47 11.47 0 0 1-.693 1.47l-1.008 1.498-1.017 1.48c-.35.497-.615.957-.906 1.444a7.02 7.02 0 0 0-.658 1.57l2.111-.433 2.111-.397a.82.82 0 0 1 .512.135 1.42 1.42 0 0 1 .376.388 1.41 1.41 0 0 1 .257.443c.063.175.083.364.06.55zm11.313-3.763c-.051.184-.135.355-.248.505s-.25.287-.401.397a1.93 1.93 0 0 1-.479.262c-.167.065-.343.102-.521.108l-2.478.082c-.821-.01-1.624 0-2.436-.1a1.25 1.25 0 0 1-.521-.153c-.318-.159-.57-.435-.709-.776-.077-.176-.12-.366-.128-.56a.71.71 0 0 1 .094-.406.87.87 0 0 1 .265-.288 1.7 1.7 0 0 1 .35-.208l.367-.135c.282-.08.567-.143.855-.19.283-.042.569-.063.854-.063h.47l.462.045h.965.53.257a.9.9 0 0 0 .264 0h.488a3.55 3.55 0 0 1 .521.081 2.81 2.81 0 0 1 .487.154 1.24 1.24 0 0 1 .401.252.92.92 0 0 1 .24.406 1.34 1.34 0 0 1 .051.587zm.41-3.609c.029.178.002.362-.077.523a1.12 1.12 0 0 1-.316.379 1.2 1.2 0 0 1-.453.225c-.161.031-.326.031-.487 0h-5.588c-.166.011-.332-.026-.479-.108a1.07 1.07 0 0 1-.376-.307 1.11 1.11 0 0 1-.196-.451c-.034-.172-.034-.351 0-.523.022-.152.081-.294.171-.415a1.44 1.44 0 0 1 .307-.307c.118-.091.244-.169.376-.235l.385-.18a3.97 3.97 0 0 1 .854-.226l.855-.108h.435a3.17 3.17 0 0 1 .436 0h.855.282c.091.009.182.009.273 0h.282.291c.25.004.499.035.743.09a2.26 2.26 0 0 1 .709.271c.211.123.392.296.53.505.151.253.218.551.188.848v.019zm12.125 2.634c-.058.289-.165.564-.316.813-.145.257-.363.459-.624.577a2.22 2.22 0 0 0-.068.334l-.051.334v.74l-.052.74v.713c0 .234-.042.478-.068.721-.027.224-.072.444-.137.659-.065.223-.163.433-.29.623-.119.19-.269.355-.444.487-.209.154-.454.246-.708.265s-.509-.035-.737-.157c-.126-.063-.238-.155-.328-.269s-.156-.246-.193-.389c-.104-.288-.15-.595-.137-.903 0-.343 0-.676.052-.992l.128-1.083c.038-.179.067-.36.085-.542l.077-.532c-.013-.096-.013-.193 0-.289a.93.93 0 0 0 0-.279c-.128-.009-.256-.009-.384 0h-.376c-.47 0-.94 0-1.402-.064a6.19 6.19 0 0 1-1.35-.27l-.615-.19c-.21-.069-.416-.154-.615-.252a2.99 2.99 0 0 1-.547-.343 2.24 2.24 0 0 1-.427-.488 1.26 1.26 0 0 1-.137-.505 4.14 4.14 0 0 1 0-.568c.048-.46.14-.914.273-1.354l.462-1.326.606-1.327.718-1.263c.126-.217.262-.424.41-.623.146-.207.3-.397.462-.586l.444-.515c.159-.163.348-.289.556-.37a1.07 1.07 0 0 1 .581.136c.169.097.327.215.47.352.135.158.256.33.359.514s.148.405.136.623c-.091.394-.231.773-.418 1.127l-.573 1.074-.632 1.237c-.199.41-.376.831-.53 1.263l1.29.198 1.308.172c.061-.316.107-.636.136-.957l.077-.965c0-.307.052-.623.069-.903s0-.64.059-.947.069-.695.12-1.038a7.79 7.79 0 0 1 .231-1.047c.039-.16.102-.312.188-.451a1.37 1.37 0 0 1 .316-.361c.118-.106.255-.189.402-.243.146-.047.3-.063.452-.045a1.22 1.22 0 0 1 .573.207c.165.106.31.244.427.406.119.169.208.358.265.56s.076.418.068.631l-.059 1.218c-.06.407-.06.813-.103 1.219l-.111 1.227-.111 1.236a2.18 2.18 0 0 0 0 .343c.013.114.013.229 0 .343.254.132.47.335.624.586a1.42 1.42 0 0 1 .119.758z" fill="#3a4b59"/><g filter="url(#B)"><path d="M610.272 445.362c5.287-9.155 9.125-19.776 7.997-30.434l-34.784-5.001c-7.695 2.019-15.182 5.954-20.17 12.461s-7.048 15.86-3.865 23.529c-4.231.936-8.379 2.699-11.64 5.699s-5.551 7.337-5.62 11.901c-.039 2.54.791 5.339 2.89 6.579 2.416 1.427 5.403.281 7.994-.746 13.585-5.382 28.275-6.917 42.067-11.678 3.527-1.219 7.067-2.694 9.872-5.258 2.152-1.965 3.778-4.488 5.259-7.052z" class="D"/><path d="M667.044 456.351c-5.287-9.154-9.124-19.776-7.996-30.433l34.784-5.002c7.694 2.02 15.182 5.954 20.169 12.462s7.049 15.86 3.866 23.528c4.231.936 8.379 2.7 11.64 5.7s5.551 7.337 5.62 11.901c.039 2.54-.791 5.339-2.89 6.579-2.416 1.426-5.403.28-7.994-.746-13.585-5.382-28.275-6.918-42.067-11.679-3.527-1.219-7.067-2.694-9.872-5.258-2.152-1.965-3.778-4.487-5.26-7.052z" class="D"/><path d="M544.691 400.075c17.642 47.145 32.391 45.939 50.383 54.915s72.281 13.726 91.92 5.561c27.455-11.414 30.763-25.998 40.892-60.476 8.558-29.13 14.816-47.967 10.359-78.549-5.96-40.895-22.534-64.372-51.251-84.111l-2.726-1.827-10.359-42.661c-5.089 9.732-15.267 29.415-15.267 30.292-20.358-6.196-40.199-3.27-61.065 8.706l-5.997-26.486c-5.634 10.659-17.447 34.38-19.628 43.996-14.867 11.528-33.036 55.408-35.762 76.261s-5.252 37.628 8.501 74.379z" class="D"/><path d="M579.521 386.72c1.723 16.881-6.948 46.006 11.369 63.047 13.701 12.746 27.421 11.158 45.994 13.436 18.846 2.312 33.004 8.797 48.577-2.067 18.121-12.641 21.533-40.998 16.02-54.262s-3.455-34.262-19.121-45.477c-8.822-6.315-15.742-8.085-26.355-10.335-19.546-4.144-34.246-9.082-51.162 1.55-12.795 8.042-27.045 17.226-25.322 34.108z" fill="#d1d0ff"/><path d="M647.443 290.071c1.352 1.271 1.051 3.794-.681 5.637l-.275.27c.771.436 1.617.681 2.508.681 3.6 0 6.518-3.97 6.518-8.861s-2.918-8.861-6.518-8.861-6.518 3.97-6.518 8.861a11.87 11.87 0 0 0 .27 2.528c1.622-1.167 3.56-1.322 4.696-.255z" class="B"/><path d="M647.443 285.525c1.352-1.272 1.051-3.795-.681-5.637l-.275-.27c.771-.436 1.617-.681 2.508-.681 3.6 0 6.518 3.97 6.518 8.861s-2.918 8.861-6.518 8.861-6.518-3.97-6.518-8.861a11.87 11.87 0 0 1 .27-2.528c1.622 1.166 3.56 1.321 4.696.255z" fill="url(#F)"/><path d="M600.967 285.525c-1.352-1.272-1.052-3.795.681-5.637l.275-.27c-.771-.436-1.617-.681-2.508-.681-3.6 0-6.519 3.97-6.519 8.861s2.919 8.861 6.519 8.861 6.518-3.97 6.518-8.861a11.87 11.87 0 0 0-.27-2.528c-1.617 1.166-3.56 1.321-4.696.255z" class="B"/><path d="M597.863 285.525c1.352-1.272 1.051-3.795-.681-5.637l-.275-.27c.771-.436 1.617-.681 2.508-.681 3.599 0 6.518 3.97 6.518 8.861s-2.919 8.861-6.518 8.861-6.518-3.97-6.518-8.861a11.87 11.87 0 0 1 .27-2.528c1.617 1.166 3.56 1.321 4.696.255z" fill="#424242"/><path d="M466.313 258.379l39.217 41.878-1.036 1.082-39.216-41.879 1.035-1.081z" class="H"/><g filter="url(#C)"><path d="M624.584 332.325c.362.757 1.441.757 1.804 0l13.629-28.467a1 1 0 0 0-.902-1.431h-27.258a1 1 0 0 0-.902 1.431l13.629 28.467z" fill="#ff9a00"/></g><path d="M546.718 314.094c-9.503 3.735-20.585.77-28.617-5.766s-13.344-16.187-16.863-26.23c-3.36 9.097-2.119 19.934 3.198 27.924-2.56-2.36-4.793-5.116-6.604-8.153-.861 5.892 1.363 11.832 4.346 16.891 9.367 15.889 27.044 21.218 45.024 7.812" class="D"/><path d="M730.017 321.981c2.592 10.353 11.277 18.203 20.966 21.363s20.218 2.175 30.017-.583c-5.1 8.147-14.198 13.326-23.446 13.348a33.34 33.34 0 0 0 10.116.995c-4.062 4.14-9.939 5.648-15.573 5.992-17.695 1.084-32.012-11.092-32.012-34.335" class="D"/><path d="M630.359 265.608c-4.145-9.772-2.061-21.643 3.595-30.531s14.431-15.11 23.694-19.469c-8.815-2.952-18.974-.941-26.181 5.179 2.065-2.851 4.524-5.382 7.277-7.488-5.623-.524-11.092 2.204-15.68 5.675-14.408 10.901-18.298 29.873-4.465 47.952" class="D"/></g><g filter="url(#D)"><path d="M341.079 457.689c-3.502-6.064-6.044-13.099-5.296-20.158l23.039-3.313c5.096 1.338 10.056 3.944 13.359 8.254s4.669 10.505 2.56 15.584c2.803.62 5.55 1.788 7.71 3.776s3.677 4.859 3.723 7.882c.026 1.682-.524 3.537-1.914 4.358-1.601.945-3.579.186-5.295-.494-8.998-3.565-18.728-4.582-27.863-7.736-2.336-.807-4.681-1.784-6.54-3.482-1.425-1.302-2.502-2.972-3.483-4.671z" class="E"/><path d="M295.826 459.922c3.502-6.064 6.044-13.099 5.296-20.158l-23.039-3.313c-5.097 1.337-10.056 3.944-13.36 8.254s-4.668 10.505-2.56 15.584c-2.802.62-5.55 1.788-7.71 3.775s-3.676 4.86-3.722 7.883c-.026 1.682.524 3.536 1.914 4.357 1.6.945 3.579.186 5.295-.494 8.998-3.564 18.728-4.581 27.863-7.735 2.336-.807 4.681-1.784 6.539-3.482 1.426-1.302 2.503-2.973 3.484-4.671z" class="E"/><path d="M327.043 317.355c1.223-3.772.06-8.121-2.335-11.244s-5.865-5.151-9.454-6.471c3.184-1.386 7.03-.97 9.912 1.072a13.49 13.49 0 0 0-2.953-2.549c2.076-.379 4.2.458 6.021 1.599 5.718 3.586 7.785 10.519 3.228 17.699" class="E"/><path d="M384.518 421.895c-11.686 31.227-21.455 30.428-33.373 36.373s-47.875 9.092-60.883 3.684c-18.185-7.561-20.376-17.22-27.085-40.057-5.668-19.294-9.814-31.771-6.862-52.028 3.948-27.086 14.926-42.636 33.947-55.711l1.805-1.21 6.862-28.257c3.371 6.446 10.112 19.483 10.112 20.065 13.484-4.105 26.626-2.167 40.447 5.766l6.493-16.764c3.731 7.059 9.035 21.992 10.48 28.361 9.847 7.636 21.881 36.7 23.687 50.513s3.479 24.923-5.63 49.265z" class="E"/><path d="M361.448 413.049c-1.141 11.182 4.602 30.473-7.531 41.76-9.074 8.442-18.162 7.39-30.464 8.899-12.483 1.532-21.861 5.827-32.175-1.369-12.003-8.373-14.263-27.155-10.611-35.94s2.288-22.695 12.664-30.122c5.844-4.183 10.427-5.356 17.457-6.846 12.946-2.745 22.683-6.015 33.887 1.027 8.476 5.327 17.914 11.41 16.773 22.591z" fill="#efc0ff"/><path d="M309.399 349.04c.895-.843.696-2.514-.451-3.734l-.183-.179c.511-.289 1.072-.451 1.662-.451 2.384 0 4.317 2.629 4.317 5.869s-1.933 5.869-4.317 5.869-4.318-2.629-4.318-5.869c0-.58.063-1.144.179-1.675 1.075.773 2.358.876 3.111.17z" class="B"/><path d="M311.455 349.04c-.896-.843-.697-2.514.451-3.734l.182-.179c-.511-.289-1.071-.451-1.661-.451-2.384 0-4.318 2.629-4.318 5.869s1.934 5.869 4.318 5.869 4.317-2.629 4.317-5.869c0-.58-.063-1.144-.179-1.675-1.074.773-2.358.876-3.11.17z" fill="url(#G)"/><path d="M342.239 349.039c.895-.842.696-2.513-.451-3.733l-.183-.179c.511-.289 1.071-.451 1.662-.451 2.384 0 4.317 2.629 4.317 5.869s-1.933 5.869-4.317 5.869-4.318-2.629-4.318-5.869c0-.58.063-1.144.179-1.675 1.071.773 2.358.876 3.111.169z" class="B"/><path d="M344.295 349.039c-.896-.842-.697-2.513.451-3.733l.182-.179c-.511-.289-1.071-.451-1.661-.451-2.385 0-4.318 2.629-4.318 5.869s1.933 5.869 4.318 5.869 4.317-2.629 4.317-5.869c0-.58-.063-1.144-.179-1.675-1.071.773-2.358.876-3.11.169z" fill="url(#H)"/><g filter="url(#E)"><path d="M326.751 380.017c-.363.757-1.441.757-1.804 0l-8.491-17.736a1 1 0 0 1 .902-1.431h16.982a1 1 0 0 1 .902 1.431l-8.491 17.736z" fill="#ff3d00"/></g><path d="M365.309 348.129c6.642 1.055 13.443-2.46 17.807-7.852s6.563-12.411 7.548-19.427c3.352 5.414 3.944 12.616 1.528 18.56 1.355-1.898 2.447-4.005 3.23-6.234 1.317 3.695.642 7.865-.64 11.574-4.023 11.646-14.794 17.642-28.177 11.537" class="E"/><path d="M261.765 375.951c-1.716 6.857-7.469 12.057-13.887 14.15s-13.391 1.441-19.882-.386c3.378 5.396 9.405 8.826 15.53 8.841-2.187.561-4.452.784-6.7.659 2.69 2.742 6.583 3.741 10.315 3.969 11.72.718 21.203-7.347 21.203-22.742" class="E"/><path d="M386.84 324.879l15.79 6.372c.085.025.172.025.256 0l1.459-.186-1.021-1.225a.62.62 0 0 0-.227-.177l-15.702-7c-.16-.071-.334-.056-.486.041s-.271.268-.331.478l-.139.491a1.09 1.09 0 0 0-.061.362 1.13 1.13 0 0 0 .056.364.9.9 0 0 0 .164.299.63.63 0 0 0 .242.181z" class="H"/></g><g stroke="#3a4b59"><path d="M586.287 149.21l.086-7.999 7.765 2.841 8.933-3.762-1.99 8.326 5.037 6.685c-1.227.179-5.62.355-7.662.42l-7.361 10.905c-1.48 1.286-1.783-5.855-1.749-9.587-.123-.444-6.026-.396-8.963-.317-1.222-.38 3.427-5.166 5.904-7.512z" stroke-width="3"/><path d="M621.984 154.713l.07-5.11 5.006 1.8 5.772-2.421-1.3 5.322 3.237 4.261c-.793.117-3.627.238-4.946.284l-4.771 6.98c-.957.824-1.139-3.737-1.11-6.121-.078-.283-3.888-.242-5.783-.185-.787-.241 2.222-3.307 3.825-4.81zm-12.033 20.422l.07-5.11 5.005 1.8 5.772-2.421-1.3 5.323 3.237 4.261c-.792.116-3.626.237-4.945.283l-4.771 6.98c-.957.825-1.139-3.737-1.11-6.12-.078-.284-3.888-.242-5.783-.186-.788-.24 2.221-3.307 3.825-4.81zm26.068 4.958l.062-3.581 3.544 1.249 4.099-1.711-.935 3.733 2.284 2.977c-.562.084-2.572.176-3.507.211l-3.399 4.903c-.681.58-.799-2.616-.772-4.286-.055-.199-2.756-.16-4.1-.115-.558-.167 1.583-2.323 2.724-3.38z" stroke-width="2.5"/></g><path d="M516.971 188.016c12.628-17.279 8.857-41.524-8.422-54.151s-41.523-8.858-54.151 8.421-8.857 41.523 8.422 54.151 41.523 8.857 54.151-8.421z" class="N"/><mask id="A" class="B"><path d="M447.035 162.661v.636 3.192c0 .504.088 1.096.143 1.634.075 1.357.255 2.707.537 4.036.67 3.672 1.891 7.222 3.62 10.53a38.62 38.62 0 0 0 10.271 12.529c4.271 3.403 9.215 5.862 14.506 7.213a35.94 35.94 0 0 0 4.826.889c.823.077 1.656.219 2.49.252h2.556 1.283l1.294-.12c.867-.077 1.744-.121 2.611-.242 3.574-.569 7.061-1.594 10.375-3.049.834-.384 1.646-.845 2.479-1.272a18.08 18.08 0 0 0 2.424-1.437 44.07 44.07 0 0 0 4.596-3.422c1.448-1.305 2.805-2.708 4.058-4.201a37.17 37.17 0 0 0 6.175-10.211 41.18 41.18 0 0 0 2.775-11.978c.225-4.116-.17-8.242-1.173-12.24l-.856-2.918a80.17 80.17 0 0 1-1.097-2.786c-.174-.445-.379-.878-.614-1.294l-.691-1.327-.691-1.316-.812-1.251a42.24 42.24 0 0 0-3.477-4.705c-1.28-1.418-2.654-2.748-4.113-3.982a19.69 19.69 0 0 0-2.193-1.754c-.779-.527-1.514-1.097-2.304-1.58-1.557-.958-3.181-1.805-4.858-2.534-1.631-.727-3.31-1.342-5.024-1.842-.844-.231-1.711-.395-2.556-.592l-1.272-.275c-.417-.087-.844-.109-1.272-.175l-2.545-.296c-.844-.066-1.678 0-2.511-.066a36.01 36.01 0 0 0-4.892.241 38.71 38.71 0 0 0-15.333 5.279c-4.681 2.823-8.711 6.604-11.825 11.097a37.09 37.09 0 0 0-4.924 9.97c-.469 1.281-.836 2.598-1.097 3.937-.132.571-.274 1.097-.362 1.591s-.11.943-.165 1.349l-.241 1.832c-.055.438-.099.614-.099.614v-.625c0-.417.099-1.097.176-1.832 0-.406.099-.867.153-1.36s.209-1.02.318-1.612a27.73 27.73 0 0 1 1.031-3.96c1.105-3.593 2.759-6.993 4.903-10.08 3.125-4.567 7.186-8.415 11.914-11.29s10.014-4.709 15.507-5.381c1.641-.199 3.294-.287 4.946-.264.845 0 1.701 0 2.545.066l2.567.296c.427 0 .866.088 1.294.165l1.283.285c.867.197 1.733.351 2.6.592 1.736.504 3.436 1.123 5.089 1.854a39.95 39.95 0 0 1 4.936 2.555c.8.494 1.546 1.097 2.336 1.602a19.14 19.14 0 0 1 2.248 1.777 42.36 42.36 0 0 1 4.168 4.036c1.281 1.507 2.461 3.098 3.532 4.76l.812 1.262.702 1.327.702 1.338c.229.442.427.9.592 1.371.384.943.768 1.886 1.097 2.83s.581 1.963.877 2.961c2.149 8.152 1.579 16.782-1.623 24.58-1.517 3.768-3.636 7.265-6.274 10.354-1.258 1.503-2.613 2.921-4.058 4.245a45.18 45.18 0 0 1-4.673 3.466c-.784.542-1.605 1.029-2.457 1.458-.844.428-1.667.889-2.522 1.284a42.71 42.71 0 0 1-10.519 3.06c-.888.12-1.766.164-2.643.252l-1.316.11h-1.305-2.578c-.856-.055-1.7-.187-2.534-.275-1.645-.194-3.276-.498-4.881-.91a38.98 38.98 0 0 1-14.629-7.367c-4.3-3.464-7.815-7.802-10.312-12.727a36.9 36.9 0 0 1-3.554-10.639 27.96 27.96 0 0 1-.494-4.069c0-.592-.098-1.097-.109-1.634s0-.955 0-1.36c0-.801 0-1.415.055-1.854a5.55 5.55 0 0 1 .076-.603z"/></mask><path d="M447.035 162.661v.636 3.192c0 .504.088 1.096.143 1.634.075 1.357.255 2.707.537 4.036.67 3.672 1.891 7.222 3.62 10.53a38.62 38.62 0 0 0 10.271 12.529c4.271 3.403 9.215 5.862 14.506 7.213a35.94 35.94 0 0 0 4.826.889c.823.077 1.656.219 2.49.252h2.556 1.283l1.294-.12c.867-.077 1.744-.121 2.611-.242 3.574-.569 7.061-1.594 10.375-3.049.834-.384 1.646-.845 2.479-1.272a18.08 18.08 0 0 0 2.424-1.437 44.07 44.07 0 0 0 4.596-3.422c1.448-1.305 2.805-2.708 4.058-4.201a37.17 37.17 0 0 0 6.175-10.211 41.18 41.18 0 0 0 2.775-11.978c.225-4.116-.17-8.242-1.173-12.24l-.856-2.918a80.17 80.17 0 0 1-1.097-2.786c-.174-.445-.379-.878-.614-1.294l-.691-1.327-.691-1.316-.812-1.251a42.24 42.24 0 0 0-3.477-4.705c-1.28-1.418-2.654-2.748-4.113-3.982a19.69 19.69 0 0 0-2.193-1.754c-.779-.527-1.514-1.097-2.304-1.58-1.557-.958-3.181-1.805-4.858-2.534-1.631-.727-3.31-1.342-5.024-1.842-.844-.231-1.711-.395-2.556-.592l-1.272-.275c-.417-.087-.844-.109-1.272-.175l-2.545-.296c-.844-.066-1.678 0-2.511-.066a36.01 36.01 0 0 0-4.892.241 38.71 38.71 0 0 0-15.333 5.279c-4.681 2.823-8.711 6.604-11.825 11.097a37.09 37.09 0 0 0-4.924 9.97c-.469 1.281-.836 2.598-1.097 3.937-.132.571-.274 1.097-.362 1.591s-.11.943-.165 1.349l-.241 1.832c-.055.438-.099.614-.099.614v-.625c0-.417.099-1.097.176-1.832 0-.406.099-.867.153-1.36s.209-1.02.318-1.612a27.73 27.73 0 0 1 1.031-3.96c1.105-3.593 2.759-6.993 4.903-10.08 3.125-4.567 7.186-8.415 11.914-11.29s10.014-4.709 15.507-5.381c1.641-.199 3.294-.287 4.946-.264.845 0 1.701 0 2.545.066l2.567.296c.427 0 .866.088 1.294.165l1.283.285c.867.197 1.733.351 2.6.592 1.736.504 3.436 1.123 5.089 1.854a39.95 39.95 0 0 1 4.936 2.555c.8.494 1.546 1.097 2.336 1.602a19.14 19.14 0 0 1 2.248 1.777 42.36 42.36 0 0 1 4.168 4.036c1.281 1.507 2.461 3.098 3.532 4.76l.812 1.262.702 1.327.702 1.338c.229.442.427.9.592 1.371.384.943.768 1.886 1.097 2.83s.581 1.963.877 2.961c2.149 8.152 1.579 16.782-1.623 24.58-1.517 3.768-3.636 7.265-6.274 10.354-1.258 1.503-2.613 2.921-4.058 4.245a45.18 45.18 0 0 1-4.673 3.466c-.784.542-1.605 1.029-2.457 1.458-.844.428-1.667.889-2.522 1.284a42.71 42.71 0 0 1-10.519 3.06c-.888.12-1.766.164-2.643.252l-1.316.11h-1.305-2.578c-.856-.055-1.7-.187-2.534-.275-1.645-.194-3.276-.498-4.881-.91a38.98 38.98 0 0 1-14.629-7.367c-4.3-3.464-7.815-7.802-10.312-12.727a36.9 36.9 0 0 1-3.554-10.639 27.96 27.96 0 0 1-.494-4.069c0-.592-.098-1.097-.109-1.634s0-.955 0-1.36c0-.801 0-1.415.055-1.854a5.55 5.55 0 0 1 .076-.603z" class="H"/><path d="M447.035 162.661h1l-1.983-.182.983.182zm.143 5.462l.998-.056-.001-.023-.002-.023-.995.102zm.537 4.036l.984-.179-.002-.015-.003-.014-.979.208zm3.62 10.53l.889-.458-.003-.006-.886.464zm24.777 19.742l-.247.969h0l.247-.969zm4.826.889l-.114.993.011.002.01.001.093-.996zm2.49.252l-.039.999.019.001h.02v-1zm3.839 0v1h.046l.047-.004-.093-.996zm1.294-.12l-.088-.997-.005.001.093.996zm2.611-.242l.137.991.01-.002.01-.001-.157-.988zm10.375-3.049l.402.916.009-.004.008-.004-.419-.908zm2.479-1.272l-.441-.898-.008.004-.007.004.456.89zm2.424-1.437l-.544-.839-.016.01-.015.011.575.818zm4.596-3.422l.648.761.011-.009.01-.009-.669-.743zm4.058-4.201l-.761-.648-.005.005.766.643zm6.175-10.211l.928.373.002-.005-.93-.368zm2.775-11.978l.997.078.001-.011.001-.012-.999-.055zm-1.173-12.24l.97-.244-.005-.019-.006-.019-.959.282zm-.856-2.918l.96-.281-.015-.051-.02-.049-.925.381zm-1.097-2.786l.938-.346-.003-.009-.003-.009-.932.364zm-.614-1.294l-.887.462.008.015.008.014.871-.491zm-.691-1.327l.887-.462-.002-.003-.885.465zm-.691-1.316l.885-.465-.021-.041-.025-.039-.839.545zm-.812-1.251l-.843.538.005.007.838-.545zm-3.477-4.705l.762-.648-.01-.011-.009-.011-.743.67zm-4.113-3.982l-.678.735.016.015.017.014.645-.764zm-2.193-1.754l.568-.824-.008-.005-.56.829zm-2.304-1.58l-.524.852.003.001.521-.853zm-4.858-2.534l-.408.914.009.004.399-.918zm-5.024-1.842l.28-.96-.008-.003-.009-.002-.263.965zm-2.556-.592l.228-.974-.008-.002-.009-.002-.211.978zm-1.272-.275l.211-.977-.005-.001-.206.978zm-1.272-.175l.152-.989-.018-.002-.019-.002-.115.993zm-2.545-.296l.116-.994-.019-.002-.019-.001-.078.997zm-2.511-.066l.078-.997-.03-.002-.03-.001-.018 1zm-4.892.241l-.117-.993h-.004l.121.993zm-27.158 16.376l.821.572.001-.003-.822-.569zm-4.924 9.97l.939.344.007-.02.006-.021-.952-.303zm-1.097 3.937l.974.225.004-.016.003-.017-.981-.192zm-.527 2.94l.991.137v-.003l-.991-.134zm-.34 2.446h-1l1.971.242-.971-.242zm.176-2.457l.994.104.006-.052v-.052h-1zm.471-2.972l.984.182v-.003l-.984-.179zm1.031-3.96l.947.323.005-.014.004-.015-.956-.294zm4.903-10.08l.822.571.004-.006-.826-.565zm27.421-16.671l-.12-.993h-.002l.122.993zm4.946-.264l-.014 1h.007.007v-1zm2.545.066l.115-.993-.019-.002-.018-.002-.078.997zm2.567.296l-.115.994.057.006h.058v-1zm1.294.165l.217-.976-.02-.005-.02-.003-.177.984zm1.283.285l.222-.975-.005-.001-.217.976zm2.6.592l.278-.96-.01-.003-.268.963zm5.089 1.854l-.404.915.007.003.397-.918zm4.936 2.555l.524-.851-.004-.002-.52.853zm2.336 1.602l.56-.829-.011-.007-.011-.007-.538.843zm2.248 1.777l-.676.736.015.014.016.014.645-.764zm4.168 4.036l.762-.647-.009-.011-.01-.011-.743.669zm3.532 4.76l.841-.541h0l-.841.541zm.812 1.262l.884-.468-.02-.038-.023-.036-.841.542zm.702 1.327l.885-.465-.001-.003-.884.468zm.702 1.338l.887-.461-.002-.004-.885.465zm.592 1.371l-.944.33.008.024.01.023.926-.377zm1.974 5.791l.967-.255-.004-.015-.004-.014-.959.284zm-1.623 24.58l-.925-.38-.003.006.928.374zm-6.274 10.354l-.76-.65-.007.008.767.642zm-4.058 4.245l.646.763.015-.013.014-.013-.675-.737zm-4.673 3.466l-.542-.84-.013.008-.013.009.568.823zm-2.457 1.458l-.449-.893-.002.001.451.892zm-2.522 1.284l.4.916.01-.004.009-.004-.419-.908zm-10.519 3.06l.135.991.009-.002.01-.001-.154-.988zm-2.643.252l.083.997.008-.001.008-.001-.099-.995zm-1.316.11v1h.041l.042-.004-.083-.996zm-3.883 0l-.064.998.032.002h.032v-1zm-2.534-.275l-.117.994.013.001.104-.995zm-4.881-.91l-.252.968.004.001.248-.969zm-24.941-20.094l.892-.452-.003-.005-.889.457zm-3.554-10.639l.986-.169-.002-.012-.003-.012-.981.193zm-.494-4.069h-1v.024l.002.023.998-.047zm-.054-4.848l.992.124.003-.027.002-.027-.997-.07zm.076-.603h-1v.02.021.02.021.02.021.02.02.022.02.021.021.02.02.022.021.021.021.021.021.02.021.021.022.021.021.02.021.021.022l2 .012v-.02-.021-.021-.021-.02-.022-.02-.021-.021-.021-.02-.021-.021-.022-.021-.021-.022-.021-.021-.02-.021-.02-.022-.02-.021-.02-.021-.02-.02-.021c0-.012 0-.012-1-.012zm-1 .636v3.192h2v-3.192h-2zm0 3.192c0 .572.101 1.269.148 1.735l1.99-.203-.138-1.532h-2zm.145 1.689a27.48 27.48 0 0 0 .557 4.189l1.957-.416a25.52 25.52 0 0 1-.518-3.884l-1.996.111zm.552 4.161c.688 3.771 1.941 7.416 3.717 10.813l1.772-.927c-1.682-3.218-2.87-6.672-3.522-10.245l-1.967.359zm3.714 10.807c2.564 4.982 6.155 9.363 10.537 12.854l1.246-1.564a37.63 37.63 0 0 1-10.005-12.205l-1.778.915zM460.983 196a39.62 39.62 0 0 0 14.882 7.4l.495-1.937a37.62 37.62 0 0 1-14.131-7.027L460.983 196zm14.882 7.4a36.91 36.91 0 0 0 4.959.913l.228-1.987c-1.582-.181-3.15-.469-4.692-.863l-.495 1.937zm4.98.916c.705.065 1.69.222 2.544.255l.078-1.998c-.813-.032-1.495-.161-2.436-.249l-.186 1.992zm2.583.256h2.556v-2h-2.556v2zm2.556 0h.02.022.023.02.022.023.02.022.021.022.023.02.022.023.02.022.023.02.023.02.022.023.02.022.023.02.023.02.022.023.02.022.023.02.022.021.022.023.02.022.023.02.022.023.02.023.02.022.023.02.022.023.02.023.02.022.023.02.022l.008-2h-.023-.02-.022-.023-.022-.021-.02-.022-.023-.02-.022-.023-.022-.023-.02-.023-.022-.02-.023-.022-.02-.023-.02-.022-.021-.02-.022-.023-.02-.022-.023-.02-.022-.021-.022-.023-.02-.022-.023-.02-.022-.023-.02-.023-.02-.022-.023-.02-.022-.023-.02-.023-.02-.022-.023-.02-.022-.023-.02l-.007 2zm1.376-.004l1.294-.121-.186-1.991-1.294.12.186 1.992zm1.289-.12c.814-.073 1.762-.122 2.66-.247l-.275-1.981c-.835.116-1.642.154-2.561.235l.176 1.993zm2.68-.25a43.42 43.42 0 0 0 10.62-3.121l-.803-1.832a41.42 41.42 0 0 1-10.132 2.978l.315 1.975zm10.637-3.129c.856-.394 1.737-.89 2.517-1.291l-.913-1.779c-.888.455-1.63.88-2.441 1.254l.837 1.816zm2.502-1.283c.89-.438 1.746-.945 2.558-1.516l-1.151-1.636c-.727.511-1.493.965-2.29 1.357l.883 1.795zm2.526-1.495c1.641-1.064 3.211-2.233 4.7-3.5l-1.296-1.523c-1.423 1.211-2.924 2.328-4.492 3.345l1.088 1.678zm4.721-3.518a43.16 43.16 0 0 0 4.155-4.301l-1.532-1.286c-1.223 1.457-2.547 2.827-3.961 4.101l1.338 1.486zm4.151-4.296a38.18 38.18 0 0 0 6.341-10.486l-1.855-.747c-1.455 3.614-3.484 6.97-6.009 9.937l1.523 1.296zm6.343-10.491a42.17 42.17 0 0 0 2.842-12.268l-1.994-.156a40.2 40.2 0 0 1-2.707 11.687l1.859.737zm2.844-12.291c.23-4.216-.175-8.443-1.202-12.539l-1.94.487c.978 3.901 1.364 7.927 1.145 11.943l1.997.109zm-1.213-12.577l-.855-2.917-1.919.563.855 2.917 1.919-.563zm-.89-3.017c-.382-.926-.75-1.846-1.084-2.751l-1.876.692c.346.938.724 1.883 1.11 2.821l1.85-.762zm-1.09-2.769c-.191-.489-.417-.964-.675-1.421l-1.742.982a9.22 9.22 0 0 1 .554 1.167l1.863-.728zm-.659-1.392l-.691-1.327-1.774.924.691 1.327 1.774-.924zm-.693-1.33l-.691-1.316-1.77.93.691 1.316 1.77-.93zm-.737-1.396l-.812-1.25-1.677 1.089.811 1.25 1.678-1.089zm-.807-1.243c-1.074-1.686-2.263-3.295-3.559-4.816l-1.523 1.296c1.236 1.452 2.371 2.987 3.395 4.595l1.687-1.075zm-3.578-4.838a43.66 43.66 0 0 0-4.21-4.075l-1.291 1.527a41.77 41.77 0 0 1 4.016 3.888l1.485-1.34zm-4.177-4.046c-.724-.668-1.494-1.284-2.304-1.844l-1.136 1.647c.733.505 1.429 1.062 2.083 1.666l1.357-1.469zm-2.312-1.849c-.695-.47-1.538-1.112-2.342-1.604l-1.043 1.706c.775.474 1.403.972 2.265 1.555l1.12-1.657zm-2.339-1.603a39.77 39.77 0 0 0-4.985-2.599l-.797 1.835a37.5 37.5 0 0 1 4.733 2.468l1.049-1.704zm-4.976-2.595c-1.672-.745-3.393-1.377-5.151-1.889l-.56 1.92a38.35 38.35 0 0 1 4.896 1.796l.815-1.827zm-5.168-1.894c-.863-.235-1.806-.418-2.591-.601l-.455 1.947c.904.212 1.694.358 2.52.584l.526-1.93zm-2.608-.605l-1.272-.274-.421 1.955 1.272.274.421-1.955zm-1.277-.275c-.256-.054-.505-.086-.722-.111-.231-.027-.414-.045-.604-.075l-.304 1.977c.238.037.482.062.677.085.207.024.38.047.541.081l.412-1.957zm-1.363-.19l-2.544-.297-.231 1.987 2.544.296.231-1.986zm-2.582-.3c-.467-.037-.926-.036-1.338-.036-.424 0-.802-.001-1.173-.03l-.157 1.994c.462.036.919.036 1.33.036.425 0 .805 0 1.183.03l.155-1.994zm-2.571-.069c-1.679-.032-3.359.051-5.027.248l.234 1.986c1.578-.186 3.167-.264 4.756-.234l.037-2zm-5.031.248c-5.566.675-10.927 2.52-15.728 5.416l1.032 1.712c4.56-2.749 9.651-4.502 14.937-5.142l-.241-1.986zm-15.728 5.416a39.7 39.7 0 0 0-12.13 11.383l1.643 1.139a37.72 37.72 0 0 1 11.519-10.81l-1.032-1.712zm-12.129 11.381a38.12 38.12 0 0 0-5.057 10.238l1.905.607a36.13 36.13 0 0 1 4.793-9.701l-1.641-1.144zm-5.043 10.198c-.488 1.331-.869 2.699-1.14 4.09l1.963.383c.251-1.288.604-2.554 1.055-3.785l-1.878-.688zm-1.133 4.057c-.119.517-.278 1.114-.372 1.64l1.969.35c.082-.462.208-.917.352-1.541l-1.949-.449zm-.372 1.64a10.8 10.8 0 0 0-.104.779l-.067.611 1.982.268c.031-.224.053-.467.074-.673.023-.217.047-.424.084-.635l-1.969-.35zm-.17 1.386l-.243 1.846 1.984.248.24-1.819-1.981-.275zm-.243 1.846c-.026.203-.048.338-.062.418l-.015.077.97.243.971.242c.003-.015.004-.02.006-.025.002-.012.005-.026.009-.043.007-.034.017-.08.027-.139.022-.118.049-.29.078-.525l-1.984-.248zm.893.738h1v-.021-.02-.021-.02-.02-.021-.02-.021-.02-.021-.02-.021-.02-.02-.022-.02-.022-.022-.021-.022-.02-.021-.021-.021-.02-.023-.022-.022-.021l-2-.019v.021.022.021.023.022.02.021.021.021.02.022.021.022.021.021.022.021.022.022.02.021.02.02.021.02.021.02.021.02c0 .015 0 .015 1 .015zm1-.625c0-.348.085-.912.17-1.728l-1.989-.208c-.068.653-.181 1.45-.181 1.936h2zm.176-1.832a3.8 3.8 0 0 1 .047-.51l.1-.74-1.987-.221c-.026.23-.059.43-.094.687-.033.234-.066.508-.066.784h2zm.147-1.25c.021-.19.063-.4.121-.664.056-.25.128-.558.187-.876l-1.967-.365c-.051.274-.11.526-.173.81-.059.271-.122.571-.155.874l1.987.221zm.308-1.543c.237-1.295.569-2.57.994-3.816l-1.893-.646a28.6 28.6 0 0 0-1.068 4.103l1.967.359zm1.003-3.845c1.075-3.494 2.683-6.801 4.769-9.803l-1.643-1.141c-2.203 3.171-3.902 6.665-5.037 10.356l1.911.588zm4.773-9.809a37.95 37.95 0 0 1 11.608-11.001l-1.039-1.708a39.95 39.95 0 0 0-12.22 11.58l1.651 1.129zm11.608-11.001a37.97 37.97 0 0 1 15.108-5.243l-.243-1.985a39.94 39.94 0 0 0-15.904 5.52l1.039 1.708zm15.107-5.243a35.83 35.83 0 0 1 4.812-.256l.029-2c-1.698-.024-3.396.067-5.081.271l.24 1.985zm4.826-.256c.852 0 1.668.001 2.467.063l.156-1.994c-.89-.069-1.785-.069-2.623-.069v2zm2.43.06l2.567.296.229-1.987-2.566-.296-.23 1.987zm2.682.302c.317 0 .651.065 1.117.149l.354-1.968c-.39-.07-.933-.181-1.471-.181v2zm1.077.141l1.283.285.434-1.952-1.283-.285-.434 1.952zm1.278.284c.933.212 1.714.347 2.553.581l.537-1.927c-.893-.249-1.845-.422-2.646-.604l-.444 1.95zm2.543.578a39.62 39.62 0 0 1 4.964 1.807l.808-1.829c-1.694-.749-3.436-1.383-5.215-1.899l-.557 1.921zm4.971 1.811c1.66.717 3.268 1.55 4.812 2.491l1.041-1.707a40.64 40.64 0 0 0-5.059-2.62l-.794 1.836zm4.808 2.489a20.12 20.12 0 0 1 1.115.758c.378.271.786.565 1.207.835l1.077-1.686c-.368-.235-.728-.495-1.12-.775-.384-.275-.796-.568-1.23-.835l-1.049 1.703zm2.301 1.578a18.31 18.31 0 0 1 2.132 1.685l1.353-1.473c-.741-.681-1.532-1.305-2.365-1.869l-1.12 1.657zm2.163 1.713c1.445 1.219 2.805 2.536 4.07 3.941l1.486-1.338a43.46 43.46 0 0 0-4.266-4.132l-1.29 1.529zm4.051 3.919c1.252 1.474 2.406 3.029 3.453 4.655l1.682-1.083c-1.095-1.7-2.302-3.326-3.611-4.866l-1.524 1.294zm3.453 4.654l.812 1.262 1.682-1.083-.812-1.261-1.682 1.082zm.769 1.188l.702 1.327 1.768-.935-.702-1.327-1.768.935zm.7 1.324l.702 1.338 1.771-.929-.702-1.338-1.771.929zm.7 1.335c.208.4.387.814.536 1.24l1.888-.66c-.181-.516-.397-1.018-.649-1.502l-1.775.922zm.554 1.287c.385.947.759 1.867 1.079 2.782l1.888-.659c-.339-.971-.733-1.938-1.115-2.877l-1.852.754zm1.079 2.782c.32.917.547 1.854.862 2.917l1.918-.569c-.277-.934-.554-2.038-.892-3.007l-1.888.659zm.854 2.887c2.094 7.941 1.539 16.348-1.581 23.945l1.85.76a39.72 39.72 0 0 0 1.665-25.215l-1.934.51zm-1.584 23.951a36.55 36.55 0 0 1-6.106 10.079l1.521 1.298c2.707-3.171 4.883-6.761 6.441-10.63l-1.856-.747zm-6.113 10.086c-1.229 1.469-2.554 2.855-3.967 4.149l1.351 1.475c1.478-1.354 2.864-2.804 4.15-4.34l-1.534-1.284zm-3.937 4.123a44.3 44.3 0 0 1-4.569 3.39l1.085 1.679a46.12 46.12 0 0 0 4.776-3.542l-1.292-1.527zm-4.595 3.407c-.747.516-1.528.98-2.338 1.388l.899 1.786a21.48 21.48 0 0 0 2.576-1.529l-1.137-1.645zm-2.34 1.389c-.899.455-1.652.881-2.49 1.268l.838 1.816c.873-.403 1.765-.899 2.555-1.3l-.903-1.784zm-2.472 1.259c-3.281 1.434-6.733 2.438-10.272 2.989l.308 1.976c3.708-.577 7.326-1.63 10.765-3.132l-.801-1.833zm-10.252 2.986c-.875.119-1.657.153-2.609.248l.199 1.99c.803-.08 1.776-.134 2.679-.256l-.269-1.982zm-2.592.246l-1.316.11.166 1.993 1.316-.109-.166-1.994zm-1.233.107h-.021-.023-.023-.021-.023-.02-.021-.02-.023-.02-.021-.02-.021-.02-.023-.02-.021-.02-.023-.02-.021-.02-.023-.02-.023-.023-.023-.02-.023-.023-.023-.02-.023-.023-.022-.021-.023-.022-.021-.023-.023-.02-.023-.023-.023-.02-.023-.023-.023-.02-.021-.02-.021-.02-.023-.021-.023-.023-.023-.023l-.002 2h.023.02.021.023.023.023.02.021.02.021.02.021.02.023.02.021.02.023.02.021.02.023.02.023.023.023.02.023.023.023.02.023.023.022.021.023.022.021.023.022.021.02.023.02.021.02.021.02.023.02.021.02.021.02.023.021.023.023.02.021l.018-2zm-1.305 0h-2.578v2h2.578v-2zm-2.514.002c-.835-.054-1.586-.176-2.493-.271l-.209 1.989c.76.08 1.698.221 2.574.278l.128-1.996zm-2.48-.27c-1.601-.189-3.188-.485-4.75-.886l-.497 1.938c1.648.422 3.322.735 5.012.935l.235-1.987zm-4.746-.885A37.96 37.96 0 0 1 462 194.768l-1.255 1.558a39.99 39.99 0 0 0 15.005 7.556l.505-1.936zM462 194.768c-4.19-3.375-7.614-7.602-10.047-12.4l-1.784.905a39.98 39.98 0 0 0 10.576 13.053l1.255-1.558zm-10.05-12.405c-1.673-3.254-2.839-6.745-3.457-10.351l-1.972.338a37.95 37.95 0 0 0 3.65 10.927l1.779-.914zm-3.462-10.375c-.254-1.294-.413-2.606-.476-3.923l-1.997.094a28.86 28.86 0 0 0 .511 4.215l1.962-.386zm-.475-3.876c0-.349-.029-.666-.055-.935-.027-.281-.05-.498-.054-.72l-2 .041c.006.316.039.62.063.873.026.266.046.498.046.741h2zm-.109-1.655c-.011-.526 0-.901 0-1.339h-2v1.38l2-.041zm0-1.339c0-.83.002-1.368.047-1.73l-1.985-.248c-.064.516-.062 1.206-.062 1.978h2zm.052-1.784c.012-.165.033-.329.063-.491l-1.967-.364a6.35 6.35 0 0 0-.091.715l1.995.14z" fill="#000" mask="url(#A)"/><path d="M503.28 166.346c-.449.074-.904.107-1.36.099l-3.773.065-12.668.088h-.263v-2.764l.077-14.368.076-4.387a10.47 10.47 0 0 1 .099-1.602 10.47 10.47 0 0 1 .099 1.602 98.08 98.08 0 0 0 .077 4.387l.076 14.368v2.512l-.252-.241 12.668.076 3.773.077c.459-.008.918.021 1.371.088zm-17.68-33.574c.248 1.078.333 2.187.252 3.291a11.06 11.06 0 0 1-.252 3.29c-.255-1.077-.34-2.187-.252-3.29a10.62 10.62 0 0 1 .252-3.291zm17.648 5.232c-.563.919-1.266 1.745-2.084 2.446a11.16 11.16 0 0 1-2.446 2.095 10.3 10.3 0 0 1 2.084-2.446c.702-.821 1.527-1.527 2.446-2.095zm10.321 11.275c-.811.701-1.707 1.298-2.665 1.777a13.74 13.74 0 0 1-2.808 1.558 8.46 8.46 0 0 1 2.544-2.018c.887-.616 1.88-1.062 2.929-1.317zm6.054 16.738a40.87 40.87 0 0 1-8.873 0 39.18 39.18 0 0 1 8.873 0zm-61.543-.592a34.95 34.95 0 0 1-8.379 0 34.85 34.85 0 0 1 8.379 0zm4.355 12.46a18.85 18.85 0 0 1-3.17 2.862 18.51 18.51 0 0 1-3.477 2.49 17.81 17.81 0 0 1 3.159-2.874c1.056-.966 2.228-1.798 3.488-2.478zm10.715 9.63a30.18 30.18 0 0 1-2.193 3.74c-.64 1.27-1.373 2.491-2.194 3.652a13.95 13.95 0 0 1 1.854-3.916 13.78 13.78 0 0 1 2.533-3.476zm12.449 12.438c-.249-1.448-.333-2.92-.252-4.387a19.48 19.48 0 0 1 .252-4.388c.243 1.449.328 2.92.253 4.388a20.27 20.27 0 0 1-.253 4.387zm19.129-5.923c-1.356-.621-2.596-1.47-3.663-2.512-1.174-.92-2.183-2.033-2.983-3.29a38.28 38.28 0 0 1 3.29 2.906c1.169.905 2.29 1.872 3.356 2.896zm9.005-9.674a15.52 15.52 0 0 1-2.939-2.578 15.52 15.52 0 0 1-2.578-2.939 15.2 15.2 0 0 1 2.94 2.577c.982.865 1.849 1.853 2.577 2.94zm-51.704-30.865c-.966-.605-1.841-1.343-2.6-2.193-.853-.755-1.592-1.631-2.193-2.6a11.87 11.87 0 0 1 2.588 2.194c.856.756 1.598 1.632 2.205 2.599zm11.122-11.67a11.39 11.39 0 0 1-2.556-2.194 11.54 11.54 0 0 1-2.194-2.533 11.36 11.36 0 0 1 2.556 2.193 11.85 11.85 0 0 1 2.194 2.534z" class="H"/><path d="M302.674 250.983l.002.018.001.017c.121 1.942.138 3.889.051 5.833l11.015 2.829a52.79 52.79 0 0 1 2.845-5.076l.009-.014.01-.014c.575-.782 1.54-1.35 2.606-1.917l.741-.387 2.961-1.671c2.654-1.717 5.588-4.439 7.658-9.823v-.001c1.341-3.469 1.399-8.44-.422-12.936-1.812-4.476-5.475-8.461-11.569-10.023s-11.207.161-14.936 3.207c-3.745 3.06-6.078 7.443-6.581 11.142-.775 5.716.488 9.515 1.989 12.296.594 1.1 1.222 2.038 1.794 2.891l.462.695c.663 1.01 1.236 1.972 1.364 2.934z" stroke="#b0bec5" class="K"/><g class="B"><path d="M318.898 242.229l.543.253-8.336 17.927-.543-.253 8.336-17.927zm-12.868-3.196l.598.04-1.313 19.727-.598-.04 1.313-19.727z"/><path d="M311.617 246.992c.821 0 1.762-.503 2.691-1.456l.162-.168c.078.191.196.363.346.506a1.48 1.48 0 0 0 .523.321c1.797.449 3.415-2.997 3.481-3.164l-.269-.126c0 .036-1.612 3.392-3.135 2.996a1.26 1.26 0 0 1-.452-.304c-.126-.134-.221-.294-.279-.469 1.145-1.342 2.08-3.248 1.798-4.303a.93.93 0 0 0-.248-.438c-.122-.121-.274-.206-.441-.245-.779-.204-1.384.306-1.66 1.391a6.44 6.44 0 0 0 .216 3.535l-.246.258c-.599.599-1.768 1.6-2.871 1.318-.737-.185-1.33-.959-1.666-2.169l-.083-.312a5.03 5.03 0 0 0 1.899-2.888c.336-1.313.054-2.253-.737-2.451a.84.84 0 0 0-.469.008.85.85 0 0 0-.394.255c-.755.774-1.025 2.997-.635 4.938-.397.235-.871.303-1.318.192-1.091-.281-1.385-3.116-1.409-4.195h-.299c0 .168.102 4.081 1.63 4.471a2.03 2.03 0 0 0 1.462-.186c0 .084.042.162.066.24.258.929.797 2.097 1.876 2.397a1.79 1.79 0 0 0 .461.048zm3.847-6.592a1.07 1.07 0 0 1 .24 0 .63.63 0 0 1 .479.479c.234.833-.503 2.547-1.624 3.902a6.17 6.17 0 0 1-.149-3.201c.12-.431.413-1.18 1.054-1.18zm-5.052-1.307c.048-.005.097-.005.144 0 .737.186.743 1.247.528 2.092a5.07 5.07 0 0 1-1.672 2.655c-.336-1.798-.096-3.872.599-4.561a.6.6 0 0 1 .407-.174l-.006-.012z"/></g><path d="M300.941 256.353l14.606 3.744-.732 2.856-14.606-3.744.732-2.856zm-.851 3.322l14.605 3.744-.732 2.856-14.605-3.744.732-2.856zm-.845 3.318l14.606 3.744-.733 2.856-14.605-3.744.732-2.856zm20.217-47.649a8.45 8.45 0 0 0 1.198-4.272c-.396.636-.693 1.329-.881 2.055-.215.719-.322 1.467-.317 2.217zm9.103 5.28a7.59 7.59 0 0 0 1.798-1.343 7.69 7.69 0 0 0 1.372-1.767c-.665.351-1.272.804-1.798 1.342a7.43 7.43 0 0 0-1.372 1.768zm5.261 9.067a8.45 8.45 0 0 0 4.297-1.115 8.43 8.43 0 0 0-4.297 1.115zm.012 10.511c1.289.78 2.766 1.195 4.273 1.199-1.289-.781-2.766-1.195-4.273-1.199zm-5.25 9.109c.355.663.808 1.269 1.343 1.798a7.39 7.39 0 0 0 1.768 1.372 7.27 7.27 0 0 0-1.343-1.797c-.519-.542-1.114-1.004-1.768-1.373zm-33.979-9.079a7.42 7.42 0 0 0-2.223.27 7.31 7.31 0 0 0-2.067.845 7.38 7.38 0 0 0 2.217-.27c.73-.175 1.429-.46 2.073-.845zm-.005-10.511a8.34 8.34 0 0 0-4.279-1.199c1.291.78 2.77 1.194 4.279 1.199zm5.249-9.097c-.357-.663-.811-1.269-1.348-1.798a7.27 7.27 0 0 0-1.768-1.372 8.26 8.26 0 0 0 3.116 3.158v.012zm9.097-5.274a8.43 8.43 0 0 0-1.115-4.291 7.42 7.42 0 0 0 .264 2.224 7.53 7.53 0 0 0 .851 2.067z" fill="#455a64"/><defs><filter id="B" x="461.278" y="192.927" width="323.722" height="296.827" filterUnits="userSpaceOnUse" class="I"><feFlood result="A" class="J"/><feColorMatrix in="SourceAlpha" values="0 0 0 0 0 0 0 0 0 0 0 0 0 0 0 0 0 0 127 0" result="B"/><feOffset dy="4"/><feGaussianBlur stdDeviation="2"/><feComposite in2="B" operator="out"/><feColorMatrix values="0 0 0 0 0 0 0 0 0 0 0 0 0 0 0 0 0 0 0.25 0"/><feBlend in2="A"/><feBlend in="SourceGraphic"/></filter><filter id="C" x="606.855" y="302.427" width="37.26" height="38.466" filterUnits="userSpaceOnUse" class="I"><feFlood result="A" class="J"/><feColorMatrix in="SourceAlpha" values="0 0 0 0 0 0 0 0 0 0 0 0 0 0 0 0 0 0 127 0" result="B"/><feOffset dy="4"/><feGaussianBlur stdDeviation="2"/><feComposite in2="B" operator="out"/><feColorMatrix values="0 0 0 0 0 0 0 0 0 0 0 0 0 0 0 0 0 0 0.25 0"/><feBlend in2="A"/><feBlend in="SourceGraphic"/></filter><filter id="D" x="223.996" y="284.689" width="184.349" height="200.058" filterUnits="userSpaceOnUse" class="I"><feFlood result="A" class="J"/><feColorMatrix in="SourceAlpha" values="0 0 0 0 0 0 0 0 0 0 0 0 0 0 0 0 0 0 127 0" result="B"/><feOffset dy="4"/><feGaussianBlur stdDeviation="2"/><feComposite in2="B" operator="out"/><feColorMatrix values="0 0 0 0 0 0 0 0 0 0 0 0 0 0 0 0 0 0 0.25 0"/><feBlend in2="A"/><feBlend in="SourceGraphic"/></filter><filter id="E" x="312.356" y="360.849" width="26.985" height="27.735" filterUnits="userSpaceOnUse" class="I"><feFlood result="A" class="J"/><feColorMatrix in="SourceAlpha" values="0 0 0 0 0 0 0 0 0 0 0 0 0 0 0 0 0 0 127 0" result="B"/><feOffset dy="4"/><feGaussianBlur stdDeviation="2"/><feComposite in2="B" operator="out"/><feColorMatrix values="0 0 0 0 0 0 0 0 0 0 0 0 0 0 0 0 0 0 0.25 0"/><feBlend in2="A"/><feBlend in="SourceGraphic"/></filter><linearGradient id="F" x1="648.998" y1="278.935" x2="648.998" y2="296.66" gradientUnits="userSpaceOnUse"><stop stop-color="#424242"/><stop offset="1" stop-color="#212121"/></linearGradient><linearGradient id="G" x1="310.424" y1="344.674" x2="310.424" y2="356.415" gradientUnits="userSpaceOnUse"><stop stop-color="#424242"/><stop offset="1" stop-color="#212121"/></linearGradient><linearGradient id="H" x1="343.266" y1="344.674" x2="343.266" y2="356.415" gradientUnits="userSpaceOnUse"><stop stop-color="#424242"/><stop offset="1" stop-color="#212121"/></linearGradient></defs></svg>